<?xml version="1.0" encoding="utf-8" standalone="no"?>
<!DOCTYPE svg PUBLIC "-//W3C//DTD SVG 1.1//EN"
  "http://www.w3.org/Graphics/SVG/1.1/DTD/svg11.dtd">
<svg xmlns:xlink="http://www.w3.org/1999/xlink" width="485.2125pt" height="301.117314pt" viewBox="0 0 485.2125 301.117314" xmlns="http://www.w3.org/2000/svg" version="1.1">
 <metadata>
  <rdf:RDF xmlns:dc="http://purl.org/dc/elements/1.1/" xmlns:cc="http://creativecommons.org/ns#" xmlns:rdf="http://www.w3.org/1999/02/22-rdf-syntax-ns#">
   <cc:Work>
    <dc:type rdf:resource="http://purl.org/dc/dcmitype/StillImage"/>
    <dc:date>2025-12-03T06:18:47.342724</dc:date>
    <dc:format>image/svg+xml</dc:format>
    <dc:creator>
     <cc:Agent>
      <dc:title>Matplotlib v3.10.1, https://matplotlib.org/</dc:title>
     </cc:Agent>
    </dc:creator>
   </cc:Work>
  </rdf:RDF>
 </metadata>
 <defs>
  <style type="text/css">*{stroke-linejoin: round; stroke-linecap: butt}</style>
 </defs>
 <g id="figure_1">
  <g id="patch_1">
   <path d="M 0 301.117314 
L 485.2125 301.117314 
L 485.2125 0 
L 0 0 
z
" style="fill: #ffffff"/>
  </g>
  <g id="axes_1">
   <g id="patch_2">
    <path d="M 38.8125 236.878125 
L 485.2125 236.878125 
L 485.2125 15.118125 
L 38.8125 15.118125 
z
" style="fill: #ffffff"/>
   </g>
   <g id="patch_3">
    <path d="M 52.422256 791.278125 
L 60.04372 791.278125 
L 60.04372 31.047885 
L 52.422256 31.047885 
z
" clip-path="url(#p83a138ea82)" style="fill: #034185"/>
   </g>
   <g id="patch_4">
    <path d="M 106.86128 791.278125 
L 114.482744 791.278125 
L 114.482744 140.394045 
L 106.86128 140.394045 
z
" clip-path="url(#p83a138ea82)" style="fill: #034185"/>
   </g>
   <g id="patch_5">
    <path d="M 161.300305 791.278125 
L 168.921768 791.278125 
L 168.921768 764.629965 
L 161.300305 764.629965 
z
" clip-path="url(#p83a138ea82)" style="fill: #034185"/>
   </g>
   <g id="patch_6">
    <path d="M 215.739329 791.278125 
L 223.360793 791.278125 
L 223.360793 732.567165 
L 215.739329 732.567165 
z
" clip-path="url(#p83a138ea82)" style="fill: #034185"/>
   </g>
   <g id="patch_7">
    <path d="M 270.178354 791.278125 
L 277.799817 791.278125 
L 277.799817 772.095885 
L 270.178354 772.095885 
z
" clip-path="url(#p83a138ea82)" style="fill: #034185"/>
   </g>
   <g id="patch_8">
    <path d="M 324.617378 791.278125 
L 332.238841 791.278125 
L 332.238841 788.469165 
L 324.617378 788.469165 
z
" clip-path="url(#p83a138ea82)" style="fill: #034185"/>
   </g>
   <g id="patch_9">
    <path d="M 379.056402 791.278125 
L 386.677866 791.278125 
L 386.677866 789.947565 
L 379.056402 789.947565 
z
" clip-path="url(#p83a138ea82)" style="fill: #034185"/>
   </g>
   <g id="patch_10">
    <path d="M 433.495427 791.278125 
L 441.11689 791.278125 
L 441.11689 790.612845 
L 433.495427 790.612845 
z
" clip-path="url(#p83a138ea82)" style="fill: #034185"/>
   </g>
   <g id="patch_11">
    <path d="M 60.04372 791.278125 
L 67.665183 791.278125 
L 67.665183 162.717885 
L 60.04372 162.717885 
z
" clip-path="url(#p83a138ea82)" style="fill: #a14059"/>
   </g>
   <g id="patch_12">
    <path d="M 114.482744 791.278125 
L 122.104207 791.278125 
L 122.104207 215.145645 
L 114.482744 215.145645 
z
" clip-path="url(#p83a138ea82)" style="fill: #a14059"/>
   </g>
   <g id="patch_13">
    <path d="M 168.921768 791.278125 
L 176.543232 791.278125 
L 176.543232 780.374925 
L 168.921768 780.374925 
z
" clip-path="url(#p83a138ea82)" style="fill: #a14059"/>
   </g>
   <g id="patch_14">
    <path d="M 223.360793 791.278125 
L 230.982256 791.278125 
L 230.982256 760.176285 
L 223.360793 760.176285 
z
" clip-path="url(#p83a138ea82)" style="fill: #a14059"/>
   </g>
   <g id="patch_15">
    <path d="M 277.799817 791.278125 
L 285.42128 791.278125 
L 285.42128 783.756765 
L 277.799817 783.756765 
z
" clip-path="url(#p83a138ea82)" style="fill: #a14059"/>
   </g>
   <g id="patch_16">
    <path d="M 332.238841 791.278125 
L 339.860305 791.278125 
L 339.860305 789.374685 
L 332.238841 789.374685 
z
" clip-path="url(#p83a138ea82)" style="fill: #a14059"/>
   </g>
   <g id="patch_17">
    <path d="M 386.677866 791.278125 
L 394.299329 791.278125 
L 394.299329 790.668285 
L 386.677866 790.668285 
z
" clip-path="url(#p83a138ea82)" style="fill: #a14059"/>
   </g>
   <g id="patch_18">
    <path d="M 441.11689 791.278125 
L 448.738354 791.278125 
L 448.738354 790.890045 
L 441.11689 790.890045 
z
" clip-path="url(#p83a138ea82)" style="fill: #a14059"/>
   </g>
   <g id="patch_19">
    <path d="M 67.665183 791.278125 
L 75.286646 791.278125 
L 75.286646 153.126765 
L 67.665183 153.126765 
z
" clip-path="url(#p83a138ea82)" style="fill: #277b8e"/>
   </g>
   <g id="patch_20">
    <path d="M 122.104207 791.278125 
L 129.725671 791.278125 
L 129.725671 203.244525 
L 122.104207 203.244525 
z
" clip-path="url(#p83a138ea82)" style="fill: #277b8e"/>
   </g>
   <g id="patch_21">
    <path d="M 176.543232 791.278125 
L 184.164695 791.278125 
L 184.164695 779.210685 
L 176.543232 779.210685 
z
" clip-path="url(#p83a138ea82)" style="fill: #277b8e"/>
   </g>
   <g id="patch_22">
    <path d="M 230.982256 791.278125 
L 238.60372 791.278125 
L 238.60372 763.188525 
L 230.982256 763.188525 
z
" clip-path="url(#p83a138ea82)" style="fill: #277b8e"/>
   </g>
   <g id="patch_23">
    <path d="M 285.42128 791.278125 
L 293.042744 791.278125 
L 293.042744 785.937405 
L 285.42128 785.937405 
z
" clip-path="url(#p83a138ea82)" style="fill: #277b8e"/>
   </g>
   <g id="patch_24">
    <path d="M 339.860305 791.278125 
L 347.481768 791.278125 
L 347.481768 789.337725 
L 339.860305 789.337725 
z
" clip-path="url(#p83a138ea82)" style="fill: #277b8e"/>
   </g>
   <g id="patch_25">
    <path d="M 394.299329 791.278125 
L 401.920793 791.278125 
L 401.920793 788.820285 
L 394.299329 788.820285 
z
" clip-path="url(#p83a138ea82)" style="fill: #277b8e"/>
   </g>
   <g id="patch_26">
    <path d="M 448.738354 791.278125 
L 456.359817 791.278125 
L 456.359817 791.056365 
L 448.738354 791.056365 
z
" clip-path="url(#p83a138ea82)" style="fill: #277b8e"/>
   </g>
   <g id="patch_27">
    <path d="M 75.286646 791.278125 
L 82.90811 791.278125 
L 82.90811 159.594765 
L 75.286646 159.594765 
z
" clip-path="url(#p83a138ea82)" style="fill: #ace1fb"/>
   </g>
   <g id="patch_28">
    <path d="M 129.725671 791.278125 
L 137.347134 791.278125 
L 137.347134 201.858525 
L 129.725671 201.858525 
z
" clip-path="url(#p83a138ea82)" style="fill: #ace1fb"/>
   </g>
   <g id="patch_29">
    <path d="M 184.164695 791.278125 
L 191.786159 791.278125 
L 191.786159 783.886125 
L 184.164695 783.886125 
z
" clip-path="url(#p83a138ea82)" style="fill: #ace1fb"/>
   </g>
   <g id="patch_30">
    <path d="M 238.60372 791.278125 
L 246.225183 791.278125 
L 246.225183 762.393885 
L 238.60372 762.393885 
z
" clip-path="url(#p83a138ea82)" style="fill: #ace1fb"/>
   </g>
   <g id="patch_31">
    <path d="M 293.042744 791.278125 
L 300.664207 791.278125 
L 300.664207 787.748445 
L 293.042744 787.748445 
z
" clip-path="url(#p83a138ea82)" style="fill: #ace1fb"/>
   </g>
   <g id="patch_32">
    <path d="M 347.481768 791.278125 
L 355.103232 791.278125 
L 355.103232 789.855165 
L 347.481768 789.855165 
z
" clip-path="url(#p83a138ea82)" style="fill: #ace1fb"/>
   </g>
   <g id="patch_33">
    <path d="M 401.920793 791.278125 
L 409.542256 791.278125 
L 409.542256 790.280205 
L 401.920793 790.280205 
z
" clip-path="url(#p83a138ea82)" style="fill: #ace1fb"/>
   </g>
   <g id="patch_34">
    <path d="M 456.359817 791.278125 
L 463.98128 791.278125 
L 463.98128 791.241165 
L 456.359817 791.241165 
z
" clip-path="url(#p83a138ea82)" style="fill: #ace1fb"/>
   </g>
   <g id="patch_35">
    <path d="M 82.90811 791.278125 
L 90.529573 791.278125 
L 90.529573 143.868285 
L 82.90811 143.868285 
z
" clip-path="url(#p83a138ea82)" style="fill: #a7a7d6"/>
   </g>
   <g id="patch_36">
    <path d="M 137.347134 791.278125 
L 144.968598 791.278125 
L 144.968598 195.963405 
L 137.347134 195.963405 
z
" clip-path="url(#p83a138ea82)" style="fill: #a7a7d6"/>
   </g>
   <g id="patch_37">
    <path d="M 191.786159 791.278125 
L 199.407622 791.278125 
L 199.407622 783.257805 
L 191.786159 783.257805 
z
" clip-path="url(#p83a138ea82)" style="fill: #a7a7d6"/>
   </g>
   <g id="patch_38">
    <path d="M 246.225183 791.278125 
L 253.846646 791.278125 
L 253.846646 758.457645 
L 246.225183 758.457645 
z
" clip-path="url(#p83a138ea82)" style="fill: #a7a7d6"/>
   </g>
   <g id="patch_39">
    <path d="M 300.664207 791.278125 
L 308.285671 791.278125 
L 308.285671 784.810125 
L 300.664207 784.810125 
z
" clip-path="url(#p83a138ea82)" style="fill: #a7a7d6"/>
   </g>
   <g id="patch_40">
    <path d="M 355.103232 791.278125 
L 362.724695 791.278125 
L 362.724695 789.577965 
L 355.103232 789.577965 
z
" clip-path="url(#p83a138ea82)" style="fill: #a7a7d6"/>
   </g>
   <g id="patch_41">
    <path d="M 409.542256 791.278125 
L 417.16372 791.278125 
L 417.16372 788.284365 
L 409.542256 788.284365 
z
" clip-path="url(#p83a138ea82)" style="fill: #a7a7d6"/>
   </g>
   <g id="patch_42">
    <path d="M 463.98128 791.278125 
L 471.602744 791.278125 
L 471.602744 791.185725 
L 463.98128 791.185725 
z
" clip-path="url(#p83a138ea82)" style="fill: #a7a7d6"/>
   </g>
   <g id="matplotlib.axis_1">
    <g id="xtick_1">
     <g id="line2d_1">
      <defs>
       <path id="m0aba28ed8f" d="M 0 0 
L 0 3.5 
" style="stroke: #000000; stroke-width: 0.8"/>
      </defs>
      <g>
       <use xlink:href="#m0aba28ed8f" x="71.475915" y="236.878125" style="stroke: #000000; stroke-width: 0.8"/>
      </g>
     </g>
     <g id="text_1">
      <!-- All Buildings -->
      <g transform="translate(51.736034 292.633138) rotate(-45) scale(0.1 -0.1)">
       <defs>
        <path id="DejaVuSans-41" d="M 2188 4044 
L 1331 1722 
L 3047 1722 
L 2188 4044 
z
M 1831 4666 
L 2547 4666 
L 4325 0 
L 3669 0 
L 3244 1197 
L 1141 1197 
L 716 0 
L 50 0 
L 1831 4666 
z
" transform="scale(0.015625)"/>
        <path id="DejaVuSans-6c" d="M 603 4863 
L 1178 4863 
L 1178 0 
L 603 0 
L 603 4863 
z
" transform="scale(0.015625)"/>
        <path id="DejaVuSans-20" transform="scale(0.015625)"/>
        <path id="DejaVuSans-42" d="M 1259 2228 
L 1259 519 
L 2272 519 
Q 2781 519 3026 730 
Q 3272 941 3272 1375 
Q 3272 1813 3026 2020 
Q 2781 2228 2272 2228 
L 1259 2228 
z
M 1259 4147 
L 1259 2741 
L 2194 2741 
Q 2656 2741 2882 2914 
Q 3109 3088 3109 3444 
Q 3109 3797 2882 3972 
Q 2656 4147 2194 4147 
L 1259 4147 
z
M 628 4666 
L 2241 4666 
Q 2963 4666 3353 4366 
Q 3744 4066 3744 3513 
Q 3744 3084 3544 2831 
Q 3344 2578 2956 2516 
Q 3422 2416 3680 2098 
Q 3938 1781 3938 1306 
Q 3938 681 3513 340 
Q 3088 0 2303 0 
L 628 0 
L 628 4666 
z
" transform="scale(0.015625)"/>
        <path id="DejaVuSans-75" d="M 544 1381 
L 544 3500 
L 1119 3500 
L 1119 1403 
Q 1119 906 1312 657 
Q 1506 409 1894 409 
Q 2359 409 2629 706 
Q 2900 1003 2900 1516 
L 2900 3500 
L 3475 3500 
L 3475 0 
L 2900 0 
L 2900 538 
Q 2691 219 2414 64 
Q 2138 -91 1772 -91 
Q 1169 -91 856 284 
Q 544 659 544 1381 
z
M 1991 3584 
L 1991 3584 
z
" transform="scale(0.015625)"/>
        <path id="DejaVuSans-69" d="M 603 3500 
L 1178 3500 
L 1178 0 
L 603 0 
L 603 3500 
z
M 603 4863 
L 1178 4863 
L 1178 4134 
L 603 4134 
L 603 4863 
z
" transform="scale(0.015625)"/>
        <path id="DejaVuSans-64" d="M 2906 2969 
L 2906 4863 
L 3481 4863 
L 3481 0 
L 2906 0 
L 2906 525 
Q 2725 213 2448 61 
Q 2172 -91 1784 -91 
Q 1150 -91 751 415 
Q 353 922 353 1747 
Q 353 2572 751 3078 
Q 1150 3584 1784 3584 
Q 2172 3584 2448 3432 
Q 2725 3281 2906 2969 
z
M 947 1747 
Q 947 1113 1208 752 
Q 1469 391 1925 391 
Q 2381 391 2643 752 
Q 2906 1113 2906 1747 
Q 2906 2381 2643 2742 
Q 2381 3103 1925 3103 
Q 1469 3103 1208 2742 
Q 947 2381 947 1747 
z
" transform="scale(0.015625)"/>
        <path id="DejaVuSans-6e" d="M 3513 2113 
L 3513 0 
L 2938 0 
L 2938 2094 
Q 2938 2591 2744 2837 
Q 2550 3084 2163 3084 
Q 1697 3084 1428 2787 
Q 1159 2491 1159 1978 
L 1159 0 
L 581 0 
L 581 3500 
L 1159 3500 
L 1159 2956 
Q 1366 3272 1645 3428 
Q 1925 3584 2291 3584 
Q 2894 3584 3203 3211 
Q 3513 2838 3513 2113 
z
" transform="scale(0.015625)"/>
        <path id="DejaVuSans-67" d="M 2906 1791 
Q 2906 2416 2648 2759 
Q 2391 3103 1925 3103 
Q 1463 3103 1205 2759 
Q 947 2416 947 1791 
Q 947 1169 1205 825 
Q 1463 481 1925 481 
Q 2391 481 2648 825 
Q 2906 1169 2906 1791 
z
M 3481 434 
Q 3481 -459 3084 -895 
Q 2688 -1331 1869 -1331 
Q 1566 -1331 1297 -1286 
Q 1028 -1241 775 -1147 
L 775 -588 
Q 1028 -725 1275 -790 
Q 1522 -856 1778 -856 
Q 2344 -856 2625 -561 
Q 2906 -266 2906 331 
L 2906 616 
Q 2728 306 2450 153 
Q 2172 0 1784 0 
Q 1141 0 747 490 
Q 353 981 353 1791 
Q 353 2603 747 3093 
Q 1141 3584 1784 3584 
Q 2172 3584 2450 3431 
Q 2728 3278 2906 2969 
L 2906 3500 
L 3481 3500 
L 3481 434 
z
" transform="scale(0.015625)"/>
        <path id="DejaVuSans-73" d="M 2834 3397 
L 2834 2853 
Q 2591 2978 2328 3040 
Q 2066 3103 1784 3103 
Q 1356 3103 1142 2972 
Q 928 2841 928 2578 
Q 928 2378 1081 2264 
Q 1234 2150 1697 2047 
L 1894 2003 
Q 2506 1872 2764 1633 
Q 3022 1394 3022 966 
Q 3022 478 2636 193 
Q 2250 -91 1575 -91 
Q 1294 -91 989 -36 
Q 684 19 347 128 
L 347 722 
Q 666 556 975 473 
Q 1284 391 1588 391 
Q 1994 391 2212 530 
Q 2431 669 2431 922 
Q 2431 1156 2273 1281 
Q 2116 1406 1581 1522 
L 1381 1569 
Q 847 1681 609 1914 
Q 372 2147 372 2553 
Q 372 3047 722 3315 
Q 1072 3584 1716 3584 
Q 2034 3584 2315 3537 
Q 2597 3491 2834 3397 
z
" transform="scale(0.015625)"/>
       </defs>
       <use xlink:href="#DejaVuSans-41"/>
       <use xlink:href="#DejaVuSans-6c" transform="translate(68.408203 0)"/>
       <use xlink:href="#DejaVuSans-6c" transform="translate(96.191406 0)"/>
       <use xlink:href="#DejaVuSans-20" transform="translate(123.974609 0)"/>
       <use xlink:href="#DejaVuSans-42" transform="translate(155.761719 0)"/>
       <use xlink:href="#DejaVuSans-75" transform="translate(224.365234 0)"/>
       <use xlink:href="#DejaVuSans-69" transform="translate(287.744141 0)"/>
       <use xlink:href="#DejaVuSans-6c" transform="translate(315.527344 0)"/>
       <use xlink:href="#DejaVuSans-64" transform="translate(343.310547 0)"/>
       <use xlink:href="#DejaVuSans-69" transform="translate(406.787109 0)"/>
       <use xlink:href="#DejaVuSans-6e" transform="translate(434.570312 0)"/>
       <use xlink:href="#DejaVuSans-67" transform="translate(497.949219 0)"/>
       <use xlink:href="#DejaVuSans-73" transform="translate(561.425781 0)"/>
      </g>
     </g>
    </g>
    <g id="xtick_2">
     <g id="line2d_2">
      <g>
       <use xlink:href="#m0aba28ed8f" x="125.914939" y="236.878125" style="stroke: #000000; stroke-width: 0.8"/>
      </g>
     </g>
     <g id="text_2">
      <!-- Residential -->
      <g transform="translate(108.391397 288.200462) rotate(-45) scale(0.1 -0.1)">
       <defs>
        <path id="DejaVuSans-52" d="M 2841 2188 
Q 3044 2119 3236 1894 
Q 3428 1669 3622 1275 
L 4263 0 
L 3584 0 
L 2988 1197 
Q 2756 1666 2539 1819 
Q 2322 1972 1947 1972 
L 1259 1972 
L 1259 0 
L 628 0 
L 628 4666 
L 2053 4666 
Q 2853 4666 3247 4331 
Q 3641 3997 3641 3322 
Q 3641 2881 3436 2590 
Q 3231 2300 2841 2188 
z
M 1259 4147 
L 1259 2491 
L 2053 2491 
Q 2509 2491 2742 2702 
Q 2975 2913 2975 3322 
Q 2975 3731 2742 3939 
Q 2509 4147 2053 4147 
L 1259 4147 
z
" transform="scale(0.015625)"/>
        <path id="DejaVuSans-65" d="M 3597 1894 
L 3597 1613 
L 953 1613 
Q 991 1019 1311 708 
Q 1631 397 2203 397 
Q 2534 397 2845 478 
Q 3156 559 3463 722 
L 3463 178 
Q 3153 47 2828 -22 
Q 2503 -91 2169 -91 
Q 1331 -91 842 396 
Q 353 884 353 1716 
Q 353 2575 817 3079 
Q 1281 3584 2069 3584 
Q 2775 3584 3186 3129 
Q 3597 2675 3597 1894 
z
M 3022 2063 
Q 3016 2534 2758 2815 
Q 2500 3097 2075 3097 
Q 1594 3097 1305 2825 
Q 1016 2553 972 2059 
L 3022 2063 
z
" transform="scale(0.015625)"/>
        <path id="DejaVuSans-74" d="M 1172 4494 
L 1172 3500 
L 2356 3500 
L 2356 3053 
L 1172 3053 
L 1172 1153 
Q 1172 725 1289 603 
Q 1406 481 1766 481 
L 2356 481 
L 2356 0 
L 1766 0 
Q 1100 0 847 248 
Q 594 497 594 1153 
L 594 3053 
L 172 3053 
L 172 3500 
L 594 3500 
L 594 4494 
L 1172 4494 
z
" transform="scale(0.015625)"/>
        <path id="DejaVuSans-61" d="M 2194 1759 
Q 1497 1759 1228 1600 
Q 959 1441 959 1056 
Q 959 750 1161 570 
Q 1363 391 1709 391 
Q 2188 391 2477 730 
Q 2766 1069 2766 1631 
L 2766 1759 
L 2194 1759 
z
M 3341 1997 
L 3341 0 
L 2766 0 
L 2766 531 
Q 2569 213 2275 61 
Q 1981 -91 1556 -91 
Q 1019 -91 701 211 
Q 384 513 384 1019 
Q 384 1609 779 1909 
Q 1175 2209 1959 2209 
L 2766 2209 
L 2766 2266 
Q 2766 2663 2505 2880 
Q 2244 3097 1772 3097 
Q 1472 3097 1187 3025 
Q 903 2953 641 2809 
L 641 3341 
Q 956 3463 1253 3523 
Q 1550 3584 1831 3584 
Q 2591 3584 2966 3190 
Q 3341 2797 3341 1997 
z
" transform="scale(0.015625)"/>
       </defs>
       <use xlink:href="#DejaVuSans-52"/>
       <use xlink:href="#DejaVuSans-65" transform="translate(64.982422 0)"/>
       <use xlink:href="#DejaVuSans-73" transform="translate(126.505859 0)"/>
       <use xlink:href="#DejaVuSans-69" transform="translate(178.605469 0)"/>
       <use xlink:href="#DejaVuSans-64" transform="translate(206.388672 0)"/>
       <use xlink:href="#DejaVuSans-65" transform="translate(269.865234 0)"/>
       <use xlink:href="#DejaVuSans-6e" transform="translate(331.388672 0)"/>
       <use xlink:href="#DejaVuSans-74" transform="translate(394.767578 0)"/>
       <use xlink:href="#DejaVuSans-69" transform="translate(433.976562 0)"/>
       <use xlink:href="#DejaVuSans-61" transform="translate(461.759766 0)"/>
       <use xlink:href="#DejaVuSans-6c" transform="translate(523.039062 0)"/>
      </g>
     </g>
    </g>
    <g id="xtick_3">
     <g id="line2d_3">
      <g>
       <use xlink:href="#m0aba28ed8f" x="180.353963" y="236.878125" style="stroke: #000000; stroke-width: 0.8"/>
      </g>
     </g>
     <g id="text_3">
      <!-- Industrial -->
      <g transform="translate(165.724035 282.413235) rotate(-45) scale(0.1 -0.1)">
       <defs>
        <path id="DejaVuSans-49" d="M 628 4666 
L 1259 4666 
L 1259 0 
L 628 0 
L 628 4666 
z
" transform="scale(0.015625)"/>
        <path id="DejaVuSans-72" d="M 2631 2963 
Q 2534 3019 2420 3045 
Q 2306 3072 2169 3072 
Q 1681 3072 1420 2755 
Q 1159 2438 1159 1844 
L 1159 0 
L 581 0 
L 581 3500 
L 1159 3500 
L 1159 2956 
Q 1341 3275 1631 3429 
Q 1922 3584 2338 3584 
Q 2397 3584 2469 3576 
Q 2541 3569 2628 3553 
L 2631 2963 
z
" transform="scale(0.015625)"/>
       </defs>
       <use xlink:href="#DejaVuSans-49"/>
       <use xlink:href="#DejaVuSans-6e" transform="translate(29.492188 0)"/>
       <use xlink:href="#DejaVuSans-64" transform="translate(92.871094 0)"/>
       <use xlink:href="#DejaVuSans-75" transform="translate(156.347656 0)"/>
       <use xlink:href="#DejaVuSans-73" transform="translate(219.726562 0)"/>
       <use xlink:href="#DejaVuSans-74" transform="translate(271.826172 0)"/>
       <use xlink:href="#DejaVuSans-72" transform="translate(311.035156 0)"/>
       <use xlink:href="#DejaVuSans-69" transform="translate(352.148438 0)"/>
       <use xlink:href="#DejaVuSans-61" transform="translate(379.931641 0)"/>
       <use xlink:href="#DejaVuSans-6c" transform="translate(441.210938 0)"/>
      </g>
     </g>
    </g>
    <g id="xtick_4">
     <g id="line2d_4">
      <g>
       <use xlink:href="#m0aba28ed8f" x="234.792988" y="236.878125" style="stroke: #000000; stroke-width: 0.8"/>
      </g>
     </g>
     <g id="text_4">
      <!-- Commerical -->
      <g transform="translate(215.520461 291.698431) rotate(-45) scale(0.1 -0.1)">
       <defs>
        <path id="DejaVuSans-43" d="M 4122 4306 
L 4122 3641 
Q 3803 3938 3442 4084 
Q 3081 4231 2675 4231 
Q 1875 4231 1450 3742 
Q 1025 3253 1025 2328 
Q 1025 1406 1450 917 
Q 1875 428 2675 428 
Q 3081 428 3442 575 
Q 3803 722 4122 1019 
L 4122 359 
Q 3791 134 3420 21 
Q 3050 -91 2638 -91 
Q 1578 -91 968 557 
Q 359 1206 359 2328 
Q 359 3453 968 4101 
Q 1578 4750 2638 4750 
Q 3056 4750 3426 4639 
Q 3797 4528 4122 4306 
z
" transform="scale(0.015625)"/>
        <path id="DejaVuSans-6f" d="M 1959 3097 
Q 1497 3097 1228 2736 
Q 959 2375 959 1747 
Q 959 1119 1226 758 
Q 1494 397 1959 397 
Q 2419 397 2687 759 
Q 2956 1122 2956 1747 
Q 2956 2369 2687 2733 
Q 2419 3097 1959 3097 
z
M 1959 3584 
Q 2709 3584 3137 3096 
Q 3566 2609 3566 1747 
Q 3566 888 3137 398 
Q 2709 -91 1959 -91 
Q 1206 -91 779 398 
Q 353 888 353 1747 
Q 353 2609 779 3096 
Q 1206 3584 1959 3584 
z
" transform="scale(0.015625)"/>
        <path id="DejaVuSans-6d" d="M 3328 2828 
Q 3544 3216 3844 3400 
Q 4144 3584 4550 3584 
Q 5097 3584 5394 3201 
Q 5691 2819 5691 2113 
L 5691 0 
L 5113 0 
L 5113 2094 
Q 5113 2597 4934 2840 
Q 4756 3084 4391 3084 
Q 3944 3084 3684 2787 
Q 3425 2491 3425 1978 
L 3425 0 
L 2847 0 
L 2847 2094 
Q 2847 2600 2669 2842 
Q 2491 3084 2119 3084 
Q 1678 3084 1418 2786 
Q 1159 2488 1159 1978 
L 1159 0 
L 581 0 
L 581 3500 
L 1159 3500 
L 1159 2956 
Q 1356 3278 1631 3431 
Q 1906 3584 2284 3584 
Q 2666 3584 2933 3390 
Q 3200 3197 3328 2828 
z
" transform="scale(0.015625)"/>
        <path id="DejaVuSans-63" d="M 3122 3366 
L 3122 2828 
Q 2878 2963 2633 3030 
Q 2388 3097 2138 3097 
Q 1578 3097 1268 2742 
Q 959 2388 959 1747 
Q 959 1106 1268 751 
Q 1578 397 2138 397 
Q 2388 397 2633 464 
Q 2878 531 3122 666 
L 3122 134 
Q 2881 22 2623 -34 
Q 2366 -91 2075 -91 
Q 1284 -91 818 406 
Q 353 903 353 1747 
Q 353 2603 823 3093 
Q 1294 3584 2113 3584 
Q 2378 3584 2631 3529 
Q 2884 3475 3122 3366 
z
" transform="scale(0.015625)"/>
       </defs>
       <use xlink:href="#DejaVuSans-43"/>
       <use xlink:href="#DejaVuSans-6f" transform="translate(69.824219 0)"/>
       <use xlink:href="#DejaVuSans-6d" transform="translate(131.005859 0)"/>
       <use xlink:href="#DejaVuSans-6d" transform="translate(228.417969 0)"/>
       <use xlink:href="#DejaVuSans-65" transform="translate(325.830078 0)"/>
       <use xlink:href="#DejaVuSans-72" transform="translate(387.353516 0)"/>
       <use xlink:href="#DejaVuSans-69" transform="translate(428.466797 0)"/>
       <use xlink:href="#DejaVuSans-63" transform="translate(456.25 0)"/>
       <use xlink:href="#DejaVuSans-61" transform="translate(511.230469 0)"/>
       <use xlink:href="#DejaVuSans-6c" transform="translate(572.509766 0)"/>
      </g>
     </g>
    </g>
    <g id="xtick_5">
     <g id="line2d_5">
      <g>
       <use xlink:href="#m0aba28ed8f" x="289.232012" y="236.878125" style="stroke: #000000; stroke-width: 0.8"/>
      </g>
     </g>
     <g id="text_5">
      <!-- Governemntal -->
      <g transform="translate(265.985324 299.646753) rotate(-45) scale(0.1 -0.1)">
       <defs>
        <path id="DejaVuSans-47" d="M 3809 666 
L 3809 1919 
L 2778 1919 
L 2778 2438 
L 4434 2438 
L 4434 434 
Q 4069 175 3628 42 
Q 3188 -91 2688 -91 
Q 1594 -91 976 548 
Q 359 1188 359 2328 
Q 359 3472 976 4111 
Q 1594 4750 2688 4750 
Q 3144 4750 3555 4637 
Q 3966 4525 4313 4306 
L 4313 3634 
Q 3963 3931 3569 4081 
Q 3175 4231 2741 4231 
Q 1884 4231 1454 3753 
Q 1025 3275 1025 2328 
Q 1025 1384 1454 906 
Q 1884 428 2741 428 
Q 3075 428 3337 486 
Q 3600 544 3809 666 
z
" transform="scale(0.015625)"/>
        <path id="DejaVuSans-76" d="M 191 3500 
L 800 3500 
L 1894 563 
L 2988 3500 
L 3597 3500 
L 2284 0 
L 1503 0 
L 191 3500 
z
" transform="scale(0.015625)"/>
       </defs>
       <use xlink:href="#DejaVuSans-47"/>
       <use xlink:href="#DejaVuSans-6f" transform="translate(77.490234 0)"/>
       <use xlink:href="#DejaVuSans-76" transform="translate(138.671875 0)"/>
       <use xlink:href="#DejaVuSans-65" transform="translate(197.851562 0)"/>
       <use xlink:href="#DejaVuSans-72" transform="translate(259.375 0)"/>
       <use xlink:href="#DejaVuSans-6e" transform="translate(298.738281 0)"/>
       <use xlink:href="#DejaVuSans-65" transform="translate(362.117188 0)"/>
       <use xlink:href="#DejaVuSans-6d" transform="translate(423.640625 0)"/>
       <use xlink:href="#DejaVuSans-6e" transform="translate(521.052734 0)"/>
       <use xlink:href="#DejaVuSans-74" transform="translate(584.431641 0)"/>
       <use xlink:href="#DejaVuSans-61" transform="translate(623.640625 0)"/>
       <use xlink:href="#DejaVuSans-6c" transform="translate(684.919922 0)"/>
      </g>
     </g>
    </g>
    <g id="xtick_6">
     <g id="line2d_6">
      <g>
       <use xlink:href="#m0aba28ed8f" x="343.671037" y="236.878125" style="stroke: #000000; stroke-width: 0.8"/>
      </g>
     </g>
     <g id="text_6">
      <!-- Religious -->
      <g transform="translate(329.712307 281.070837) rotate(-45) scale(0.1 -0.1)">
       <use xlink:href="#DejaVuSans-52"/>
       <use xlink:href="#DejaVuSans-65" transform="translate(64.982422 0)"/>
       <use xlink:href="#DejaVuSans-6c" transform="translate(126.505859 0)"/>
       <use xlink:href="#DejaVuSans-69" transform="translate(154.289062 0)"/>
       <use xlink:href="#DejaVuSans-67" transform="translate(182.072266 0)"/>
       <use xlink:href="#DejaVuSans-69" transform="translate(245.548828 0)"/>
       <use xlink:href="#DejaVuSans-6f" transform="translate(273.332031 0)"/>
       <use xlink:href="#DejaVuSans-75" transform="translate(334.513672 0)"/>
       <use xlink:href="#DejaVuSans-73" transform="translate(397.892578 0)"/>
      </g>
     </g>
    </g>
    <g id="xtick_7">
     <g id="line2d_7">
      <g>
       <use xlink:href="#m0aba28ed8f" x="398.110061" y="236.878125" style="stroke: #000000; stroke-width: 0.8"/>
      </g>
     </g>
     <g id="text_7">
      <!-- Educaitonal -->
      <g transform="translate(379.310412 290.752675) rotate(-45) scale(0.1 -0.1)">
       <defs>
        <path id="DejaVuSans-45" d="M 628 4666 
L 3578 4666 
L 3578 4134 
L 1259 4134 
L 1259 2753 
L 3481 2753 
L 3481 2222 
L 1259 2222 
L 1259 531 
L 3634 531 
L 3634 0 
L 628 0 
L 628 4666 
z
" transform="scale(0.015625)"/>
       </defs>
       <use xlink:href="#DejaVuSans-45"/>
       <use xlink:href="#DejaVuSans-64" transform="translate(63.183594 0)"/>
       <use xlink:href="#DejaVuSans-75" transform="translate(126.660156 0)"/>
       <use xlink:href="#DejaVuSans-63" transform="translate(190.039062 0)"/>
       <use xlink:href="#DejaVuSans-61" transform="translate(245.019531 0)"/>
       <use xlink:href="#DejaVuSans-69" transform="translate(306.298828 0)"/>
       <use xlink:href="#DejaVuSans-74" transform="translate(334.082031 0)"/>
       <use xlink:href="#DejaVuSans-6f" transform="translate(373.291016 0)"/>
       <use xlink:href="#DejaVuSans-6e" transform="translate(434.472656 0)"/>
       <use xlink:href="#DejaVuSans-61" transform="translate(497.851562 0)"/>
       <use xlink:href="#DejaVuSans-6c" transform="translate(559.130859 0)"/>
      </g>
     </g>
    </g>
    <g id="xtick_8">
     <g id="line2d_8">
      <g>
       <use xlink:href="#m0aba28ed8f" x="452.549085" y="236.878125" style="stroke: #000000; stroke-width: 0.8"/>
      </g>
     </g>
     <g id="text_8">
      <!-- Agricultural -->
      <g transform="translate(434.005762 290.240023) rotate(-45) scale(0.1 -0.1)">
       <use xlink:href="#DejaVuSans-41"/>
       <use xlink:href="#DejaVuSans-67" transform="translate(68.408203 0)"/>
       <use xlink:href="#DejaVuSans-72" transform="translate(131.884766 0)"/>
       <use xlink:href="#DejaVuSans-69" transform="translate(172.998047 0)"/>
       <use xlink:href="#DejaVuSans-63" transform="translate(200.78125 0)"/>
       <use xlink:href="#DejaVuSans-75" transform="translate(255.761719 0)"/>
       <use xlink:href="#DejaVuSans-6c" transform="translate(319.140625 0)"/>
       <use xlink:href="#DejaVuSans-74" transform="translate(346.923828 0)"/>
       <use xlink:href="#DejaVuSans-75" transform="translate(386.132812 0)"/>
       <use xlink:href="#DejaVuSans-72" transform="translate(449.511719 0)"/>
       <use xlink:href="#DejaVuSans-61" transform="translate(490.625 0)"/>
       <use xlink:href="#DejaVuSans-6c" transform="translate(551.904297 0)"/>
      </g>
     </g>
    </g>
   </g>
   <g id="matplotlib.axis_2">
    <g id="ytick_1">
     <g id="line2d_9">
      <defs>
       <path id="m257ff71cc5" d="M 0 0 
L -3.5 0 
" style="stroke: #000000; stroke-width: 0.8"/>
      </defs>
      <g>
       <use xlink:href="#m257ff71cc5" x="38.8125" y="236.878125" style="stroke: #000000; stroke-width: 0.8"/>
      </g>
     </g>
     <g id="text_9">
      <!-- 30000 -->
      <g transform="translate(0 240.677344) scale(0.1 -0.1)">
       <defs>
        <path id="DejaVuSans-33" d="M 2597 2516 
Q 3050 2419 3304 2112 
Q 3559 1806 3559 1356 
Q 3559 666 3084 287 
Q 2609 -91 1734 -91 
Q 1441 -91 1130 -33 
Q 819 25 488 141 
L 488 750 
Q 750 597 1062 519 
Q 1375 441 1716 441 
Q 2309 441 2620 675 
Q 2931 909 2931 1356 
Q 2931 1769 2642 2001 
Q 2353 2234 1838 2234 
L 1294 2234 
L 1294 2753 
L 1863 2753 
Q 2328 2753 2575 2939 
Q 2822 3125 2822 3475 
Q 2822 3834 2567 4026 
Q 2313 4219 1838 4219 
Q 1578 4219 1281 4162 
Q 984 4106 628 3988 
L 628 4550 
Q 988 4650 1302 4700 
Q 1616 4750 1894 4750 
Q 2613 4750 3031 4423 
Q 3450 4097 3450 3541 
Q 3450 3153 3228 2886 
Q 3006 2619 2597 2516 
z
" transform="scale(0.015625)"/>
        <path id="DejaVuSans-30" d="M 2034 4250 
Q 1547 4250 1301 3770 
Q 1056 3291 1056 2328 
Q 1056 1369 1301 889 
Q 1547 409 2034 409 
Q 2525 409 2770 889 
Q 3016 1369 3016 2328 
Q 3016 3291 2770 3770 
Q 2525 4250 2034 4250 
z
M 2034 4750 
Q 2819 4750 3233 4129 
Q 3647 3509 3647 2328 
Q 3647 1150 3233 529 
Q 2819 -91 2034 -91 
Q 1250 -91 836 529 
Q 422 1150 422 2328 
Q 422 3509 836 4129 
Q 1250 4750 2034 4750 
z
" transform="scale(0.015625)"/>
       </defs>
       <use xlink:href="#DejaVuSans-33"/>
       <use xlink:href="#DejaVuSans-30" transform="translate(63.623047 0)"/>
       <use xlink:href="#DejaVuSans-30" transform="translate(127.246094 0)"/>
       <use xlink:href="#DejaVuSans-30" transform="translate(190.869141 0)"/>
       <use xlink:href="#DejaVuSans-30" transform="translate(254.492188 0)"/>
      </g>
     </g>
    </g>
    <g id="ytick_2">
     <g id="line2d_10">
      <g>
       <use xlink:href="#m257ff71cc5" x="38.8125" y="199.918125" style="stroke: #000000; stroke-width: 0.8"/>
      </g>
     </g>
     <g id="text_10">
      <!-- 32000 -->
      <g transform="translate(0 203.717344) scale(0.1 -0.1)">
       <defs>
        <path id="DejaVuSans-32" d="M 1228 531 
L 3431 531 
L 3431 0 
L 469 0 
L 469 531 
Q 828 903 1448 1529 
Q 2069 2156 2228 2338 
Q 2531 2678 2651 2914 
Q 2772 3150 2772 3378 
Q 2772 3750 2511 3984 
Q 2250 4219 1831 4219 
Q 1534 4219 1204 4116 
Q 875 4013 500 3803 
L 500 4441 
Q 881 4594 1212 4672 
Q 1544 4750 1819 4750 
Q 2544 4750 2975 4387 
Q 3406 4025 3406 3419 
Q 3406 3131 3298 2873 
Q 3191 2616 2906 2266 
Q 2828 2175 2409 1742 
Q 1991 1309 1228 531 
z
" transform="scale(0.015625)"/>
       </defs>
       <use xlink:href="#DejaVuSans-33"/>
       <use xlink:href="#DejaVuSans-32" transform="translate(63.623047 0)"/>
       <use xlink:href="#DejaVuSans-30" transform="translate(127.246094 0)"/>
       <use xlink:href="#DejaVuSans-30" transform="translate(190.869141 0)"/>
       <use xlink:href="#DejaVuSans-30" transform="translate(254.492188 0)"/>
      </g>
     </g>
    </g>
    <g id="ytick_3">
     <g id="line2d_11">
      <g>
       <use xlink:href="#m257ff71cc5" x="38.8125" y="162.958125" style="stroke: #000000; stroke-width: 0.8"/>
      </g>
     </g>
     <g id="text_11">
      <!-- 34000 -->
      <g transform="translate(0 166.757344) scale(0.1 -0.1)">
       <defs>
        <path id="DejaVuSans-34" d="M 2419 4116 
L 825 1625 
L 2419 1625 
L 2419 4116 
z
M 2253 4666 
L 3047 4666 
L 3047 1625 
L 3713 1625 
L 3713 1100 
L 3047 1100 
L 3047 0 
L 2419 0 
L 2419 1100 
L 313 1100 
L 313 1709 
L 2253 4666 
z
" transform="scale(0.015625)"/>
       </defs>
       <use xlink:href="#DejaVuSans-33"/>
       <use xlink:href="#DejaVuSans-34" transform="translate(63.623047 0)"/>
       <use xlink:href="#DejaVuSans-30" transform="translate(127.246094 0)"/>
       <use xlink:href="#DejaVuSans-30" transform="translate(190.869141 0)"/>
       <use xlink:href="#DejaVuSans-30" transform="translate(254.492188 0)"/>
      </g>
     </g>
    </g>
    <g id="ytick_4">
     <g id="line2d_12">
      <g>
       <use xlink:href="#m257ff71cc5" x="38.8125" y="125.998125" style="stroke: #000000; stroke-width: 0.8"/>
      </g>
     </g>
     <g id="text_12">
      <!-- 36000 -->
      <g transform="translate(0 129.797344) scale(0.1 -0.1)">
       <defs>
        <path id="DejaVuSans-36" d="M 2113 2584 
Q 1688 2584 1439 2293 
Q 1191 2003 1191 1497 
Q 1191 994 1439 701 
Q 1688 409 2113 409 
Q 2538 409 2786 701 
Q 3034 994 3034 1497 
Q 3034 2003 2786 2293 
Q 2538 2584 2113 2584 
z
M 3366 4563 
L 3366 3988 
Q 3128 4100 2886 4159 
Q 2644 4219 2406 4219 
Q 1781 4219 1451 3797 
Q 1122 3375 1075 2522 
Q 1259 2794 1537 2939 
Q 1816 3084 2150 3084 
Q 2853 3084 3261 2657 
Q 3669 2231 3669 1497 
Q 3669 778 3244 343 
Q 2819 -91 2113 -91 
Q 1303 -91 875 529 
Q 447 1150 447 2328 
Q 447 3434 972 4092 
Q 1497 4750 2381 4750 
Q 2619 4750 2861 4703 
Q 3103 4656 3366 4563 
z
" transform="scale(0.015625)"/>
       </defs>
       <use xlink:href="#DejaVuSans-33"/>
       <use xlink:href="#DejaVuSans-36" transform="translate(63.623047 0)"/>
       <use xlink:href="#DejaVuSans-30" transform="translate(127.246094 0)"/>
       <use xlink:href="#DejaVuSans-30" transform="translate(190.869141 0)"/>
       <use xlink:href="#DejaVuSans-30" transform="translate(254.492188 0)"/>
      </g>
     </g>
    </g>
    <g id="ytick_5">
     <g id="line2d_13">
      <g>
       <use xlink:href="#m257ff71cc5" x="38.8125" y="89.038125" style="stroke: #000000; stroke-width: 0.8"/>
      </g>
     </g>
     <g id="text_13">
      <!-- 38000 -->
      <g transform="translate(0 92.837344) scale(0.1 -0.1)">
       <defs>
        <path id="DejaVuSans-38" d="M 2034 2216 
Q 1584 2216 1326 1975 
Q 1069 1734 1069 1313 
Q 1069 891 1326 650 
Q 1584 409 2034 409 
Q 2484 409 2743 651 
Q 3003 894 3003 1313 
Q 3003 1734 2745 1975 
Q 2488 2216 2034 2216 
z
M 1403 2484 
Q 997 2584 770 2862 
Q 544 3141 544 3541 
Q 544 4100 942 4425 
Q 1341 4750 2034 4750 
Q 2731 4750 3128 4425 
Q 3525 4100 3525 3541 
Q 3525 3141 3298 2862 
Q 3072 2584 2669 2484 
Q 3125 2378 3379 2068 
Q 3634 1759 3634 1313 
Q 3634 634 3220 271 
Q 2806 -91 2034 -91 
Q 1263 -91 848 271 
Q 434 634 434 1313 
Q 434 1759 690 2068 
Q 947 2378 1403 2484 
z
M 1172 3481 
Q 1172 3119 1398 2916 
Q 1625 2713 2034 2713 
Q 2441 2713 2670 2916 
Q 2900 3119 2900 3481 
Q 2900 3844 2670 4047 
Q 2441 4250 2034 4250 
Q 1625 4250 1398 4047 
Q 1172 3844 1172 3481 
z
" transform="scale(0.015625)"/>
       </defs>
       <use xlink:href="#DejaVuSans-33"/>
       <use xlink:href="#DejaVuSans-38" transform="translate(63.623047 0)"/>
       <use xlink:href="#DejaVuSans-30" transform="translate(127.246094 0)"/>
       <use xlink:href="#DejaVuSans-30" transform="translate(190.869141 0)"/>
       <use xlink:href="#DejaVuSans-30" transform="translate(254.492188 0)"/>
      </g>
     </g>
    </g>
    <g id="ytick_6">
     <g id="line2d_14">
      <g>
       <use xlink:href="#m257ff71cc5" x="38.8125" y="52.078125" style="stroke: #000000; stroke-width: 0.8"/>
      </g>
     </g>
     <g id="text_14">
      <!-- 40000 -->
      <g transform="translate(0 55.877344) scale(0.1 -0.1)">
       <use xlink:href="#DejaVuSans-34"/>
       <use xlink:href="#DejaVuSans-30" transform="translate(63.623047 0)"/>
       <use xlink:href="#DejaVuSans-30" transform="translate(127.246094 0)"/>
       <use xlink:href="#DejaVuSans-30" transform="translate(190.869141 0)"/>
       <use xlink:href="#DejaVuSans-30" transform="translate(254.492188 0)"/>
      </g>
     </g>
    </g>
    <g id="ytick_7">
     <g id="line2d_15">
      <g>
       <use xlink:href="#m257ff71cc5" x="38.8125" y="15.118125" style="stroke: #000000; stroke-width: 0.8"/>
      </g>
     </g>
     <g id="text_15">
      <!-- 42000 -->
      <g transform="translate(0 18.917344) scale(0.1 -0.1)">
       <use xlink:href="#DejaVuSans-34"/>
       <use xlink:href="#DejaVuSans-32" transform="translate(63.623047 0)"/>
       <use xlink:href="#DejaVuSans-30" transform="translate(127.246094 0)"/>
       <use xlink:href="#DejaVuSans-30" transform="translate(190.869141 0)"/>
       <use xlink:href="#DejaVuSans-30" transform="translate(254.492188 0)"/>
      </g>
     </g>
    </g>
   </g>
   <g id="patch_43">
    <path d="M 38.8125 236.878125 
L 38.8125 15.118125 
" style="fill: none; stroke: #000000; stroke-width: 0.8; stroke-linejoin: miter; stroke-linecap: square"/>
   </g>
   <g id="patch_44">
    <path d="M 485.2125 236.878125 
L 485.2125 15.118125 
" style="fill: none; stroke: #000000; stroke-width: 0.8; stroke-linejoin: miter; stroke-linecap: square"/>
   </g>
   <g id="patch_45">
    <path d="M 38.8125 236.878125 
L 485.2125 236.878125 
" style="fill: none; stroke: #000000; stroke-width: 0.8; stroke-linejoin: miter; stroke-linecap: square"/>
   </g>
   <g id="patch_46">
    <path d="M 38.8125 15.118125 
L 485.2125 15.118125 
" style="fill: none; stroke: #000000; stroke-width: 0.8; stroke-linejoin: miter; stroke-linecap: square"/>
   </g>
   <g id="text_16">
    <!-- Occupancy Class Cateogry Counts Across Inventories -->
    <g transform="translate(101.933437 9.118125) scale(0.12 -0.12)">
     <defs>
      <path id="DejaVuSans-4f" d="M 2522 4238 
Q 1834 4238 1429 3725 
Q 1025 3213 1025 2328 
Q 1025 1447 1429 934 
Q 1834 422 2522 422 
Q 3209 422 3611 934 
Q 4013 1447 4013 2328 
Q 4013 3213 3611 3725 
Q 3209 4238 2522 4238 
z
M 2522 4750 
Q 3503 4750 4090 4092 
Q 4678 3434 4678 2328 
Q 4678 1225 4090 567 
Q 3503 -91 2522 -91 
Q 1538 -91 948 565 
Q 359 1222 359 2328 
Q 359 3434 948 4092 
Q 1538 4750 2522 4750 
z
" transform="scale(0.015625)"/>
      <path id="DejaVuSans-70" d="M 1159 525 
L 1159 -1331 
L 581 -1331 
L 581 3500 
L 1159 3500 
L 1159 2969 
Q 1341 3281 1617 3432 
Q 1894 3584 2278 3584 
Q 2916 3584 3314 3078 
Q 3713 2572 3713 1747 
Q 3713 922 3314 415 
Q 2916 -91 2278 -91 
Q 1894 -91 1617 61 
Q 1341 213 1159 525 
z
M 3116 1747 
Q 3116 2381 2855 2742 
Q 2594 3103 2138 3103 
Q 1681 3103 1420 2742 
Q 1159 2381 1159 1747 
Q 1159 1113 1420 752 
Q 1681 391 2138 391 
Q 2594 391 2855 752 
Q 3116 1113 3116 1747 
z
" transform="scale(0.015625)"/>
      <path id="DejaVuSans-79" d="M 2059 -325 
Q 1816 -950 1584 -1140 
Q 1353 -1331 966 -1331 
L 506 -1331 
L 506 -850 
L 844 -850 
Q 1081 -850 1212 -737 
Q 1344 -625 1503 -206 
L 1606 56 
L 191 3500 
L 800 3500 
L 1894 763 
L 2988 3500 
L 3597 3500 
L 2059 -325 
z
" transform="scale(0.015625)"/>
     </defs>
     <use xlink:href="#DejaVuSans-4f"/>
     <use xlink:href="#DejaVuSans-63" transform="translate(78.710938 0)"/>
     <use xlink:href="#DejaVuSans-63" transform="translate(133.691406 0)"/>
     <use xlink:href="#DejaVuSans-75" transform="translate(188.671875 0)"/>
     <use xlink:href="#DejaVuSans-70" transform="translate(252.050781 0)"/>
     <use xlink:href="#DejaVuSans-61" transform="translate(315.527344 0)"/>
     <use xlink:href="#DejaVuSans-6e" transform="translate(376.806641 0)"/>
     <use xlink:href="#DejaVuSans-63" transform="translate(440.185547 0)"/>
     <use xlink:href="#DejaVuSans-79" transform="translate(495.166016 0)"/>
     <use xlink:href="#DejaVuSans-20" transform="translate(554.345703 0)"/>
     <use xlink:href="#DejaVuSans-43" transform="translate(586.132812 0)"/>
     <use xlink:href="#DejaVuSans-6c" transform="translate(655.957031 0)"/>
     <use xlink:href="#DejaVuSans-61" transform="translate(683.740234 0)"/>
     <use xlink:href="#DejaVuSans-73" transform="translate(745.019531 0)"/>
     <use xlink:href="#DejaVuSans-73" transform="translate(797.119141 0)"/>
     <use xlink:href="#DejaVuSans-20" transform="translate(849.21875 0)"/>
     <use xlink:href="#DejaVuSans-43" transform="translate(881.005859 0)"/>
     <use xlink:href="#DejaVuSans-61" transform="translate(950.830078 0)"/>
     <use xlink:href="#DejaVuSans-74" transform="translate(1012.109375 0)"/>
     <use xlink:href="#DejaVuSans-65" transform="translate(1051.318359 0)"/>
     <use xlink:href="#DejaVuSans-6f" transform="translate(1112.841797 0)"/>
     <use xlink:href="#DejaVuSans-67" transform="translate(1174.023438 0)"/>
     <use xlink:href="#DejaVuSans-72" transform="translate(1237.5 0)"/>
     <use xlink:href="#DejaVuSans-79" transform="translate(1278.613281 0)"/>
     <use xlink:href="#DejaVuSans-20" transform="translate(1337.792969 0)"/>
     <use xlink:href="#DejaVuSans-43" transform="translate(1369.580078 0)"/>
     <use xlink:href="#DejaVuSans-6f" transform="translate(1439.404297 0)"/>
     <use xlink:href="#DejaVuSans-75" transform="translate(1500.585938 0)"/>
     <use xlink:href="#DejaVuSans-6e" transform="translate(1563.964844 0)"/>
     <use xlink:href="#DejaVuSans-74" transform="translate(1627.34375 0)"/>
     <use xlink:href="#DejaVuSans-73" transform="translate(1666.552734 0)"/>
     <use xlink:href="#DejaVuSans-20" transform="translate(1718.652344 0)"/>
     <use xlink:href="#DejaVuSans-41" transform="translate(1750.439453 0)"/>
     <use xlink:href="#DejaVuSans-63" transform="translate(1817.097656 0)"/>
     <use xlink:href="#DejaVuSans-72" transform="translate(1872.078125 0)"/>
     <use xlink:href="#DejaVuSans-6f" transform="translate(1910.941406 0)"/>
     <use xlink:href="#DejaVuSans-73" transform="translate(1972.123047 0)"/>
     <use xlink:href="#DejaVuSans-73" transform="translate(2024.222656 0)"/>
     <use xlink:href="#DejaVuSans-20" transform="translate(2076.322266 0)"/>
     <use xlink:href="#DejaVuSans-49" transform="translate(2108.109375 0)"/>
     <use xlink:href="#DejaVuSans-6e" transform="translate(2137.601562 0)"/>
     <use xlink:href="#DejaVuSans-76" transform="translate(2200.980469 0)"/>
     <use xlink:href="#DejaVuSans-65" transform="translate(2260.160156 0)"/>
     <use xlink:href="#DejaVuSans-6e" transform="translate(2321.683594 0)"/>
     <use xlink:href="#DejaVuSans-74" transform="translate(2385.0625 0)"/>
     <use xlink:href="#DejaVuSans-6f" transform="translate(2424.271484 0)"/>
     <use xlink:href="#DejaVuSans-72" transform="translate(2485.453125 0)"/>
     <use xlink:href="#DejaVuSans-69" transform="translate(2526.566406 0)"/>
     <use xlink:href="#DejaVuSans-65" transform="translate(2554.349609 0)"/>
     <use xlink:href="#DejaVuSans-73" transform="translate(2615.873047 0)"/>
    </g>
   </g>
   <g id="legend_1">
    <g id="patch_47">
     <path d="M 340.610937 96.50875 
L 478.2125 96.50875 
Q 480.2125 96.50875 480.2125 94.50875 
L 480.2125 22.118125 
Q 480.2125 20.118125 478.2125 20.118125 
L 340.610937 20.118125 
Q 338.610937 20.118125 338.610937 22.118125 
L 338.610937 94.50875 
Q 338.610937 96.50875 340.610937 96.50875 
z
" style="fill: #ffffff; opacity: 0.8; stroke: #cccccc; stroke-linejoin: miter"/>
    </g>
    <g id="patch_48">
     <path d="M 342.610937 31.716563 
L 362.610937 31.716563 
L 362.610937 24.716563 
L 342.610937 24.716563 
z
" style="fill: #034185"/>
    </g>
    <g id="text_17">
     <!-- NSI Points -->
     <g transform="translate(370.610937 31.716563) scale(0.1 -0.1)">
      <defs>
       <path id="DejaVuSans-4e" d="M 628 4666 
L 1478 4666 
L 3547 763 
L 3547 4666 
L 4159 4666 
L 4159 0 
L 3309 0 
L 1241 3903 
L 1241 0 
L 628 0 
L 628 4666 
z
" transform="scale(0.015625)"/>
       <path id="DejaVuSans-53" d="M 3425 4513 
L 3425 3897 
Q 3066 4069 2747 4153 
Q 2428 4238 2131 4238 
Q 1616 4238 1336 4038 
Q 1056 3838 1056 3469 
Q 1056 3159 1242 3001 
Q 1428 2844 1947 2747 
L 2328 2669 
Q 3034 2534 3370 2195 
Q 3706 1856 3706 1288 
Q 3706 609 3251 259 
Q 2797 -91 1919 -91 
Q 1588 -91 1214 -16 
Q 841 59 441 206 
L 441 856 
Q 825 641 1194 531 
Q 1563 422 1919 422 
Q 2459 422 2753 634 
Q 3047 847 3047 1241 
Q 3047 1584 2836 1778 
Q 2625 1972 2144 2069 
L 1759 2144 
Q 1053 2284 737 2584 
Q 422 2884 422 3419 
Q 422 4038 858 4394 
Q 1294 4750 2059 4750 
Q 2388 4750 2728 4690 
Q 3069 4631 3425 4513 
z
" transform="scale(0.015625)"/>
       <path id="DejaVuSans-50" d="M 1259 4147 
L 1259 2394 
L 2053 2394 
Q 2494 2394 2734 2622 
Q 2975 2850 2975 3272 
Q 2975 3691 2734 3919 
Q 2494 4147 2053 4147 
L 1259 4147 
z
M 628 4666 
L 2053 4666 
Q 2838 4666 3239 4311 
Q 3641 3956 3641 3272 
Q 3641 2581 3239 2228 
Q 2838 1875 2053 1875 
L 1259 1875 
L 1259 0 
L 628 0 
L 628 4666 
z
" transform="scale(0.015625)"/>
      </defs>
      <use xlink:href="#DejaVuSans-4e"/>
      <use xlink:href="#DejaVuSans-53" transform="translate(74.804688 0)"/>
      <use xlink:href="#DejaVuSans-49" transform="translate(138.28125 0)"/>
      <use xlink:href="#DejaVuSans-20" transform="translate(167.773438 0)"/>
      <use xlink:href="#DejaVuSans-50" transform="translate(199.560547 0)"/>
      <use xlink:href="#DejaVuSans-6f" transform="translate(256.238281 0)"/>
      <use xlink:href="#DejaVuSans-69" transform="translate(317.419922 0)"/>
      <use xlink:href="#DejaVuSans-6e" transform="translate(345.203125 0)"/>
      <use xlink:href="#DejaVuSans-74" transform="translate(408.582031 0)"/>
      <use xlink:href="#DejaVuSans-73" transform="translate(447.791016 0)"/>
     </g>
    </g>
    <g id="patch_49">
     <path d="M 342.610937 46.394688 
L 362.610937 46.394688 
L 362.610937 39.394688 
L 342.610937 39.394688 
z
" style="fill: #a14059"/>
    </g>
    <g id="text_18">
     <!-- NSI Spatial Join -->
     <g transform="translate(370.610937 46.394688) scale(0.1 -0.1)">
      <defs>
       <path id="DejaVuSans-4a" d="M 628 4666 
L 1259 4666 
L 1259 325 
Q 1259 -519 939 -900 
Q 619 -1281 -91 -1281 
L -331 -1281 
L -331 -750 
L -134 -750 
Q 284 -750 456 -515 
Q 628 -281 628 325 
L 628 4666 
z
" transform="scale(0.015625)"/>
      </defs>
      <use xlink:href="#DejaVuSans-4e"/>
      <use xlink:href="#DejaVuSans-53" transform="translate(74.804688 0)"/>
      <use xlink:href="#DejaVuSans-49" transform="translate(138.28125 0)"/>
      <use xlink:href="#DejaVuSans-20" transform="translate(167.773438 0)"/>
      <use xlink:href="#DejaVuSans-53" transform="translate(199.560547 0)"/>
      <use xlink:href="#DejaVuSans-70" transform="translate(263.037109 0)"/>
      <use xlink:href="#DejaVuSans-61" transform="translate(326.513672 0)"/>
      <use xlink:href="#DejaVuSans-74" transform="translate(387.792969 0)"/>
      <use xlink:href="#DejaVuSans-69" transform="translate(427.001953 0)"/>
      <use xlink:href="#DejaVuSans-61" transform="translate(454.785156 0)"/>
      <use xlink:href="#DejaVuSans-6c" transform="translate(516.064453 0)"/>
      <use xlink:href="#DejaVuSans-20" transform="translate(543.847656 0)"/>
      <use xlink:href="#DejaVuSans-4a" transform="translate(575.634766 0)"/>
      <use xlink:href="#DejaVuSans-6f" transform="translate(605.126953 0)"/>
      <use xlink:href="#DejaVuSans-69" transform="translate(666.308594 0)"/>
      <use xlink:href="#DejaVuSans-6e" transform="translate(694.091797 0)"/>
     </g>
    </g>
    <g id="patch_50">
     <path d="M 342.610937 61.072812 
L 362.610937 61.072812 
L 362.610937 54.072812 
L 342.610937 54.072812 
z
" style="fill: #277b8e"/>
    </g>
    <g id="text_19">
     <!-- Synthesized National -->
     <g transform="translate(370.610937 61.072812) scale(0.1 -0.1)">
      <defs>
       <path id="DejaVuSans-68" d="M 3513 2113 
L 3513 0 
L 2938 0 
L 2938 2094 
Q 2938 2591 2744 2837 
Q 2550 3084 2163 3084 
Q 1697 3084 1428 2787 
Q 1159 2491 1159 1978 
L 1159 0 
L 581 0 
L 581 4863 
L 1159 4863 
L 1159 2956 
Q 1366 3272 1645 3428 
Q 1925 3584 2291 3584 
Q 2894 3584 3203 3211 
Q 3513 2838 3513 2113 
z
" transform="scale(0.015625)"/>
       <path id="DejaVuSans-7a" d="M 353 3500 
L 3084 3500 
L 3084 2975 
L 922 459 
L 3084 459 
L 3084 0 
L 275 0 
L 275 525 
L 2438 3041 
L 353 3041 
L 353 3500 
z
" transform="scale(0.015625)"/>
      </defs>
      <use xlink:href="#DejaVuSans-53"/>
      <use xlink:href="#DejaVuSans-79" transform="translate(63.476562 0)"/>
      <use xlink:href="#DejaVuSans-6e" transform="translate(122.65625 0)"/>
      <use xlink:href="#DejaVuSans-74" transform="translate(186.035156 0)"/>
      <use xlink:href="#DejaVuSans-68" transform="translate(225.244141 0)"/>
      <use xlink:href="#DejaVuSans-65" transform="translate(288.623047 0)"/>
      <use xlink:href="#DejaVuSans-73" transform="translate(350.146484 0)"/>
      <use xlink:href="#DejaVuSans-69" transform="translate(402.246094 0)"/>
      <use xlink:href="#DejaVuSans-7a" transform="translate(430.029297 0)"/>
      <use xlink:href="#DejaVuSans-65" transform="translate(482.519531 0)"/>
      <use xlink:href="#DejaVuSans-64" transform="translate(544.042969 0)"/>
      <use xlink:href="#DejaVuSans-20" transform="translate(607.519531 0)"/>
      <use xlink:href="#DejaVuSans-4e" transform="translate(639.306641 0)"/>
      <use xlink:href="#DejaVuSans-61" transform="translate(714.111328 0)"/>
      <use xlink:href="#DejaVuSans-74" transform="translate(775.390625 0)"/>
      <use xlink:href="#DejaVuSans-69" transform="translate(814.599609 0)"/>
      <use xlink:href="#DejaVuSans-6f" transform="translate(842.382812 0)"/>
      <use xlink:href="#DejaVuSans-6e" transform="translate(903.564453 0)"/>
      <use xlink:href="#DejaVuSans-61" transform="translate(966.943359 0)"/>
      <use xlink:href="#DejaVuSans-6c" transform="translate(1028.222656 0)"/>
     </g>
    </g>
    <g id="patch_51">
     <path d="M 342.610937 75.750938 
L 362.610937 75.750938 
L 362.610937 68.750938 
L 342.610937 68.750938 
z
" style="fill: #ace1fb"/>
    </g>
    <g id="text_20">
     <!-- Synthesized Local -->
     <g transform="translate(370.610937 75.750938) scale(0.1 -0.1)">
      <defs>
       <path id="DejaVuSans-4c" d="M 628 4666 
L 1259 4666 
L 1259 531 
L 3531 531 
L 3531 0 
L 628 0 
L 628 4666 
z
" transform="scale(0.015625)"/>
      </defs>
      <use xlink:href="#DejaVuSans-53"/>
      <use xlink:href="#DejaVuSans-79" transform="translate(63.476562 0)"/>
      <use xlink:href="#DejaVuSans-6e" transform="translate(122.65625 0)"/>
      <use xlink:href="#DejaVuSans-74" transform="translate(186.035156 0)"/>
      <use xlink:href="#DejaVuSans-68" transform="translate(225.244141 0)"/>
      <use xlink:href="#DejaVuSans-65" transform="translate(288.623047 0)"/>
      <use xlink:href="#DejaVuSans-73" transform="translate(350.146484 0)"/>
      <use xlink:href="#DejaVuSans-69" transform="translate(402.246094 0)"/>
      <use xlink:href="#DejaVuSans-7a" transform="translate(430.029297 0)"/>
      <use xlink:href="#DejaVuSans-65" transform="translate(482.519531 0)"/>
      <use xlink:href="#DejaVuSans-64" transform="translate(544.042969 0)"/>
      <use xlink:href="#DejaVuSans-20" transform="translate(607.519531 0)"/>
      <use xlink:href="#DejaVuSans-4c" transform="translate(639.306641 0)"/>
      <use xlink:href="#DejaVuSans-6f" transform="translate(693.269531 0)"/>
      <use xlink:href="#DejaVuSans-63" transform="translate(754.451172 0)"/>
      <use xlink:href="#DejaVuSans-61" transform="translate(809.431641 0)"/>
      <use xlink:href="#DejaVuSans-6c" transform="translate(870.710938 0)"/>
     </g>
    </g>
    <g id="patch_52">
     <path d="M 342.610937 90.429063 
L 362.610937 90.429063 
L 362.610937 83.429063 
L 342.610937 83.429063 
z
" style="fill: #a7a7d6"/>
    </g>
    <g id="text_21">
     <!-- Best Estimate -->
     <g transform="translate(370.610937 90.429063) scale(0.1 -0.1)">
      <use xlink:href="#DejaVuSans-42"/>
      <use xlink:href="#DejaVuSans-65" transform="translate(68.603516 0)"/>
      <use xlink:href="#DejaVuSans-73" transform="translate(130.126953 0)"/>
      <use xlink:href="#DejaVuSans-74" transform="translate(182.226562 0)"/>
      <use xlink:href="#DejaVuSans-20" transform="translate(221.435547 0)"/>
      <use xlink:href="#DejaVuSans-45" transform="translate(253.222656 0)"/>
      <use xlink:href="#DejaVuSans-73" transform="translate(316.40625 0)"/>
      <use xlink:href="#DejaVuSans-74" transform="translate(368.505859 0)"/>
      <use xlink:href="#DejaVuSans-69" transform="translate(407.714844 0)"/>
      <use xlink:href="#DejaVuSans-6d" transform="translate(435.498047 0)"/>
      <use xlink:href="#DejaVuSans-61" transform="translate(532.910156 0)"/>
      <use xlink:href="#DejaVuSans-74" transform="translate(594.189453 0)"/>
      <use xlink:href="#DejaVuSans-65" transform="translate(633.398438 0)"/>
     </g>
    </g>
   </g>
  </g>
 </g>
 <defs>
  <clipPath id="p83a138ea82">
   <rect x="38.8125" y="15.118125" width="446.4" height="221.76"/>
  </clipPath>
 </defs>
</svg>
