<?xml version="1.0" encoding="utf-8" standalone="no"?>
<!DOCTYPE svg PUBLIC "-//W3C//DTD SVG 1.1//EN"
  "http://www.w3.org/Graphics/SVG/1.1/DTD/svg11.dtd">
<svg xmlns:xlink="http://www.w3.org/1999/xlink" width="367.25pt" height="210.797344pt" viewBox="0 0 367.25 210.797344" xmlns="http://www.w3.org/2000/svg" version="1.1">
 <metadata>
  <rdf:RDF xmlns:dc="http://purl.org/dc/elements/1.1/" xmlns:cc="http://creativecommons.org/ns#" xmlns:rdf="http://www.w3.org/1999/02/22-rdf-syntax-ns#">
   <cc:Work>
    <dc:type rdf:resource="http://purl.org/dc/dcmitype/StillImage"/>
    <dc:date>2025-12-03T15:03:10.493290</dc:date>
    <dc:format>image/svg+xml</dc:format>
    <dc:creator>
     <cc:Agent>
      <dc:title>Matplotlib v3.10.1, https://matplotlib.org/</dc:title>
     </cc:Agent>
    </dc:creator>
   </cc:Work>
  </rdf:RDF>
 </metadata>
 <defs>
  <style type="text/css">*{stroke-linejoin: round; stroke-linecap: butt}</style>
 </defs>
 <g id="figure_1">
  <g id="patch_1">
   <path d="M 0 210.797344 
L 367.25 210.797344 
L 367.25 0 
L 0 0 
z
" style="fill: #ffffff"/>
  </g>
  <g id="axes_1">
   <g id="patch_2">
    <path d="M 32.45 170.119219 
L 367.25 170.119219 
L 367.25 3.799219 
L 32.45 3.799219 
z
" style="fill: #ffffff"/>
   </g>
   <g id="patch_3">
    <path d="M 42.657317 170.119219 
L 48.373415 170.119219 
L 48.373415 -1173.651341 
L 42.657317 -1173.651341 
z
" clip-path="url(#p7f114d7aa6)" style="fill: #034185"/>
   </g>
   <g id="patch_4">
    <path d="M 83.486585 170.119219 
L 89.202683 170.119219 
L 89.202683 136.332499 
L 83.486585 136.332499 
z
" clip-path="url(#p7f114d7aa6)" style="fill: #034185"/>
   </g>
   <g id="patch_5">
    <path d="M 124.315854 170.119219 
L 130.031951 170.119219 
L 130.031951 31.883539 
L 124.315854 31.883539 
z
" clip-path="url(#p7f114d7aa6)" style="fill: #034185"/>
   </g>
   <g id="patch_6">
    <path d="M 165.145122 170.119219 
L 170.86122 170.119219 
L 170.86122 100.027219 
L 165.145122 100.027219 
z
" clip-path="url(#p7f114d7aa6)" style="fill: #034185"/>
   </g>
   <g id="patch_7">
    <path d="M 205.97439 170.119219 
L 211.690488 170.119219 
L 211.690488 107.155219 
L 205.97439 107.155219 
z
" clip-path="url(#p7f114d7aa6)" style="fill: #034185"/>
   </g>
   <g id="patch_8">
    <path d="M 246.803659 170.119219 
L 252.519756 170.119219 
L 252.519756 159.997459 
L 246.803659 159.997459 
z
" clip-path="url(#p7f114d7aa6)" style="fill: #034185"/>
   </g>
   <g id="patch_9">
    <path d="M 287.632927 170.119219 
L 293.349024 170.119219 
L 293.349024 165.794899 
L 287.632927 165.794899 
z
" clip-path="url(#p7f114d7aa6)" style="fill: #034185"/>
   </g>
   <g id="patch_10">
    <path d="M 328.462195 170.119219 
L 334.178293 170.119219 
L 334.178293 165.794899 
L 328.462195 165.794899 
z
" clip-path="url(#p7f114d7aa6)" style="fill: #034185"/>
   </g>
   <g id="patch_11">
    <path d="M 48.373415 170.119219 
L 54.089512 170.119219 
L 54.089512 -1009.422221 
L 48.373415 -1009.422221 
z
" clip-path="url(#p7f114d7aa6)" style="fill: #a14059"/>
   </g>
   <g id="patch_12">
    <path d="M 89.202683 170.119219 
L 94.91878 170.119219 
L 94.91878 136.570099 
L 89.202683 136.570099 
z
" clip-path="url(#p7f114d7aa6)" style="fill: #a14059"/>
   </g>
   <g id="patch_13">
    <path d="M 130.031951 170.119219 
L 135.748049 170.119219 
L 135.748049 40.437139 
L 130.031951 40.437139 
z
" clip-path="url(#p7f114d7aa6)" style="fill: #a14059"/>
   </g>
   <g id="patch_14">
    <path d="M 170.86122 170.119219 
L 176.577317 170.119219 
L 176.577317 102.165619 
L 170.86122 102.165619 
z
" clip-path="url(#p7f114d7aa6)" style="fill: #a14059"/>
   </g>
   <g id="patch_15">
    <path d="M 211.690488 170.119219 
L 217.406585 170.119219 
L 217.406585 116.469139 
L 211.690488 116.469139 
z
" clip-path="url(#p7f114d7aa6)" style="fill: #a14059"/>
   </g>
   <g id="patch_16">
    <path d="M 252.519756 170.119219 
L 258.235854 170.119219 
L 258.235854 161.945779 
L 252.519756 161.945779 
z
" clip-path="url(#p7f114d7aa6)" style="fill: #a14059"/>
   </g>
   <g id="patch_17">
    <path d="M 293.349024 170.119219 
L 299.065122 170.119219 
L 299.065122 167.648179 
L 293.349024 167.648179 
z
" clip-path="url(#p7f114d7aa6)" style="fill: #a14059"/>
   </g>
   <g id="patch_18">
    <path d="M 334.178293 170.119219 
L 339.89439 170.119219 
L 339.89439 167.933299 
L 334.178293 167.933299 
z
" clip-path="url(#p7f114d7aa6)" style="fill: #a14059"/>
   </g>
   <g id="patch_19">
    <path d="M 54.089512 170.119219 
L 59.80561 170.119219 
L 59.80561 -979.579661 
L 54.089512 -979.579661 
z
" clip-path="url(#p7f114d7aa6)" style="fill: #277b8e"/>
   </g>
   <g id="patch_20">
    <path d="M 94.91878 170.119219 
L 100.634878 170.119219 
L 100.634878 61.868659 
L 94.91878 61.868659 
z
" clip-path="url(#p7f114d7aa6)" style="fill: #277b8e"/>
   </g>
   <g id="patch_21">
    <path d="M 135.748049 170.119219 
L 141.464146 170.119219 
L 141.464146 26.656339 
L 135.748049 26.656339 
z
" clip-path="url(#p7f114d7aa6)" style="fill: #277b8e"/>
   </g>
   <g id="patch_22">
    <path d="M 176.577317 170.119219 
L 182.293415 170.119219 
L 182.293415 134.954419 
L 176.577317 134.954419 
z
" clip-path="url(#p7f114d7aa6)" style="fill: #277b8e"/>
   </g>
   <g id="patch_23">
    <path d="M 217.406585 170.119219 
L 223.122683 170.119219 
L 223.122683 121.933939 
L 217.406585 121.933939 
z
" clip-path="url(#p7f114d7aa6)" style="fill: #277b8e"/>
   </g>
   <g id="patch_24">
    <path d="M 258.235854 170.119219 
L 263.951951 170.119219 
L 263.951951 156.195859 
L 258.235854 156.195859 
z
" clip-path="url(#p7f114d7aa6)" style="fill: #277b8e"/>
   </g>
   <g id="patch_25">
    <path d="M 299.065122 170.119219 
L 304.78122 170.119219 
L 304.78122 164.084179 
L 299.065122 164.084179 
z
" clip-path="url(#p7f114d7aa6)" style="fill: #277b8e"/>
   </g>
   <g id="patch_26">
    <path d="M 339.89439 170.119219 
L 345.610488 170.119219 
L 345.610488 168.075859 
L 339.89439 168.075859 
z
" clip-path="url(#p7f114d7aa6)" style="fill: #277b8e"/>
   </g>
   <g id="patch_27">
    <path d="M 59.80561 170.119219 
L 65.521707 170.119219 
L 65.521707 -1066.446221 
L 59.80561 -1066.446221 
z
" clip-path="url(#p7f114d7aa6)" style="fill: #ace1fb"/>
   </g>
   <g id="patch_28">
    <path d="M 100.634878 170.119219 
L 106.350976 170.119219 
L 106.350976 65.004979 
L 100.634878 65.004979 
z
" clip-path="url(#p7f114d7aa6)" style="fill: #ace1fb"/>
   </g>
   <g id="patch_29">
    <path d="M 141.464146 170.119219 
L 147.180244 170.119219 
L 147.180244 125.260339 
L 141.464146 125.260339 
z
" clip-path="url(#p7f114d7aa6)" style="fill: #ace1fb"/>
   </g>
   <g id="patch_30">
    <path d="M 182.293415 170.119219 
L 188.009512 170.119219 
L 188.009512 131.200339 
L 182.293415 131.200339 
z
" clip-path="url(#p7f114d7aa6)" style="fill: #ace1fb"/>
   </g>
   <g id="patch_31">
    <path d="M 223.122683 170.119219 
L 228.83878 170.119219 
L 228.83878 112.905139 
L 223.122683 112.905139 
z
" clip-path="url(#p7f114d7aa6)" style="fill: #ace1fb"/>
   </g>
   <g id="patch_32">
    <path d="M 263.951951 170.119219 
L 269.668049 170.119219 
L 269.668049 150.493459 
L 263.951951 150.493459 
z
" clip-path="url(#p7f114d7aa6)" style="fill: #ace1fb"/>
   </g>
   <g id="patch_33">
    <path d="M 304.78122 170.119219 
L 310.497317 170.119219 
L 310.497317 161.803219 
L 304.78122 161.803219 
z
" clip-path="url(#p7f114d7aa6)" style="fill: #ace1fb"/>
   </g>
   <g id="patch_34">
    <path d="M 345.610488 170.119219 
L 351.326585 170.119219 
L 351.326585 168.265939 
L 345.610488 168.265939 
z
" clip-path="url(#p7f114d7aa6)" style="fill: #ace1fb"/>
   </g>
   <g id="patch_35">
    <path d="M 65.521707 170.119219 
L 71.237805 170.119219 
L 71.237805 -1057.797581 
L 65.521707 -1057.797581 
z
" clip-path="url(#p7f114d7aa6)" style="fill: #a7a7d6"/>
   </g>
   <g id="patch_36">
    <path d="M 106.350976 170.119219 
L 112.067073 170.119219 
L 112.067073 64.529779 
L 106.350976 64.529779 
z
" clip-path="url(#p7f114d7aa6)" style="fill: #a7a7d6"/>
   </g>
   <g id="patch_37">
    <path d="M 147.180244 170.119219 
L 152.896341 170.119219 
L 152.896341 104.256499 
L 147.180244 104.256499 
z
" clip-path="url(#p7f114d7aa6)" style="fill: #a7a7d6"/>
   </g>
   <g id="patch_38">
    <path d="M 188.009512 170.119219 
L 193.72561 170.119219 
L 193.72561 130.107379 
L 188.009512 130.107379 
z
" clip-path="url(#p7f114d7aa6)" style="fill: #a7a7d6"/>
   </g>
   <g id="patch_39">
    <path d="M 228.83878 170.119219 
L 234.554878 170.119219 
L 234.554878 112.667539 
L 228.83878 112.667539 
z
" clip-path="url(#p7f114d7aa6)" style="fill: #a7a7d6"/>
   </g>
   <g id="patch_40">
    <path d="M 269.668049 170.119219 
L 275.384146 170.119219 
L 275.384146 150.445939 
L 269.668049 150.445939 
z
" clip-path="url(#p7f114d7aa6)" style="fill: #a7a7d6"/>
   </g>
   <g id="patch_41">
    <path d="M 310.497317 170.119219 
L 316.213415 170.119219 
L 316.213415 161.708179 
L 310.497317 161.708179 
z
" clip-path="url(#p7f114d7aa6)" style="fill: #a7a7d6"/>
   </g>
   <g id="patch_42">
    <path d="M 351.326585 170.119219 
L 357.042683 170.119219 
L 357.042683 168.218419 
L 351.326585 168.218419 
z
" clip-path="url(#p7f114d7aa6)" style="fill: #a7a7d6"/>
   </g>
   <g id="matplotlib.axis_1">
    <g id="xtick_1">
     <g id="line2d_1">
      <defs>
       <path id="mae00795680" d="M 0 0 
L 0 3.5 
" style="stroke: #000000; stroke-width: 0.8"/>
      </defs>
      <g>
       <use xlink:href="#mae00795680" x="56.947561" y="170.119219" style="stroke: #000000; stroke-width: 0.8"/>
      </g>
     </g>
     <g id="text_1">
      <!-- RES1 -->
      <g transform="translate(59.706936 203.097344) rotate(-90) scale(0.1 -0.1)">
       <defs>
        <path id="DejaVuSans-52" d="M 2841 2188 
Q 3044 2119 3236 1894 
Q 3428 1669 3622 1275 
L 4263 0 
L 3584 0 
L 2988 1197 
Q 2756 1666 2539 1819 
Q 2322 1972 1947 1972 
L 1259 1972 
L 1259 0 
L 628 0 
L 628 4666 
L 2053 4666 
Q 2853 4666 3247 4331 
Q 3641 3997 3641 3322 
Q 3641 2881 3436 2590 
Q 3231 2300 2841 2188 
z
M 1259 4147 
L 1259 2491 
L 2053 2491 
Q 2509 2491 2742 2702 
Q 2975 2913 2975 3322 
Q 2975 3731 2742 3939 
Q 2509 4147 2053 4147 
L 1259 4147 
z
" transform="scale(0.015625)"/>
        <path id="DejaVuSans-45" d="M 628 4666 
L 3578 4666 
L 3578 4134 
L 1259 4134 
L 1259 2753 
L 3481 2753 
L 3481 2222 
L 1259 2222 
L 1259 531 
L 3634 531 
L 3634 0 
L 628 0 
L 628 4666 
z
" transform="scale(0.015625)"/>
        <path id="DejaVuSans-53" d="M 3425 4513 
L 3425 3897 
Q 3066 4069 2747 4153 
Q 2428 4238 2131 4238 
Q 1616 4238 1336 4038 
Q 1056 3838 1056 3469 
Q 1056 3159 1242 3001 
Q 1428 2844 1947 2747 
L 2328 2669 
Q 3034 2534 3370 2195 
Q 3706 1856 3706 1288 
Q 3706 609 3251 259 
Q 2797 -91 1919 -91 
Q 1588 -91 1214 -16 
Q 841 59 441 206 
L 441 856 
Q 825 641 1194 531 
Q 1563 422 1919 422 
Q 2459 422 2753 634 
Q 3047 847 3047 1241 
Q 3047 1584 2836 1778 
Q 2625 1972 2144 2069 
L 1759 2144 
Q 1053 2284 737 2584 
Q 422 2884 422 3419 
Q 422 4038 858 4394 
Q 1294 4750 2059 4750 
Q 2388 4750 2728 4690 
Q 3069 4631 3425 4513 
z
" transform="scale(0.015625)"/>
        <path id="DejaVuSans-31" d="M 794 531 
L 1825 531 
L 1825 4091 
L 703 3866 
L 703 4441 
L 1819 4666 
L 2450 4666 
L 2450 531 
L 3481 531 
L 3481 0 
L 794 0 
L 794 531 
z
" transform="scale(0.015625)"/>
       </defs>
       <use xlink:href="#DejaVuSans-52"/>
       <use xlink:href="#DejaVuSans-45" transform="translate(69.482422 0)"/>
       <use xlink:href="#DejaVuSans-53" transform="translate(132.666016 0)"/>
       <use xlink:href="#DejaVuSans-31" transform="translate(196.142578 0)"/>
      </g>
     </g>
    </g>
    <g id="xtick_2">
     <g id="line2d_2">
      <g>
       <use xlink:href="#mae00795680" x="97.776829" y="170.119219" style="stroke: #000000; stroke-width: 0.8"/>
      </g>
     </g>
     <g id="text_2">
      <!-- RES2 -->
      <g transform="translate(100.536204 203.097344) rotate(-90) scale(0.1 -0.1)">
       <defs>
        <path id="DejaVuSans-32" d="M 1228 531 
L 3431 531 
L 3431 0 
L 469 0 
L 469 531 
Q 828 903 1448 1529 
Q 2069 2156 2228 2338 
Q 2531 2678 2651 2914 
Q 2772 3150 2772 3378 
Q 2772 3750 2511 3984 
Q 2250 4219 1831 4219 
Q 1534 4219 1204 4116 
Q 875 4013 500 3803 
L 500 4441 
Q 881 4594 1212 4672 
Q 1544 4750 1819 4750 
Q 2544 4750 2975 4387 
Q 3406 4025 3406 3419 
Q 3406 3131 3298 2873 
Q 3191 2616 2906 2266 
Q 2828 2175 2409 1742 
Q 1991 1309 1228 531 
z
" transform="scale(0.015625)"/>
       </defs>
       <use xlink:href="#DejaVuSans-52"/>
       <use xlink:href="#DejaVuSans-45" transform="translate(69.482422 0)"/>
       <use xlink:href="#DejaVuSans-53" transform="translate(132.666016 0)"/>
       <use xlink:href="#DejaVuSans-32" transform="translate(196.142578 0)"/>
      </g>
     </g>
    </g>
    <g id="xtick_3">
     <g id="line2d_3">
      <g>
       <use xlink:href="#mae00795680" x="138.606098" y="170.119219" style="stroke: #000000; stroke-width: 0.8"/>
      </g>
     </g>
     <g id="text_3">
      <!-- RES3A -->
      <g transform="translate(141.365473 209.937969) rotate(-90) scale(0.1 -0.1)">
       <defs>
        <path id="DejaVuSans-33" d="M 2597 2516 
Q 3050 2419 3304 2112 
Q 3559 1806 3559 1356 
Q 3559 666 3084 287 
Q 2609 -91 1734 -91 
Q 1441 -91 1130 -33 
Q 819 25 488 141 
L 488 750 
Q 750 597 1062 519 
Q 1375 441 1716 441 
Q 2309 441 2620 675 
Q 2931 909 2931 1356 
Q 2931 1769 2642 2001 
Q 2353 2234 1838 2234 
L 1294 2234 
L 1294 2753 
L 1863 2753 
Q 2328 2753 2575 2939 
Q 2822 3125 2822 3475 
Q 2822 3834 2567 4026 
Q 2313 4219 1838 4219 
Q 1578 4219 1281 4162 
Q 984 4106 628 3988 
L 628 4550 
Q 988 4650 1302 4700 
Q 1616 4750 1894 4750 
Q 2613 4750 3031 4423 
Q 3450 4097 3450 3541 
Q 3450 3153 3228 2886 
Q 3006 2619 2597 2516 
z
" transform="scale(0.015625)"/>
        <path id="DejaVuSans-41" d="M 2188 4044 
L 1331 1722 
L 3047 1722 
L 2188 4044 
z
M 1831 4666 
L 2547 4666 
L 4325 0 
L 3669 0 
L 3244 1197 
L 1141 1197 
L 716 0 
L 50 0 
L 1831 4666 
z
" transform="scale(0.015625)"/>
       </defs>
       <use xlink:href="#DejaVuSans-52"/>
       <use xlink:href="#DejaVuSans-45" transform="translate(69.482422 0)"/>
       <use xlink:href="#DejaVuSans-53" transform="translate(132.666016 0)"/>
       <use xlink:href="#DejaVuSans-33" transform="translate(196.142578 0)"/>
       <use xlink:href="#DejaVuSans-41" transform="translate(259.765625 0)"/>
      </g>
     </g>
    </g>
    <g id="xtick_4">
     <g id="line2d_4">
      <g>
       <use xlink:href="#mae00795680" x="179.435366" y="170.119219" style="stroke: #000000; stroke-width: 0.8"/>
      </g>
     </g>
     <g id="text_4">
      <!-- RES3B -->
      <g transform="translate(182.194741 209.958281) rotate(-90) scale(0.1 -0.1)">
       <defs>
        <path id="DejaVuSans-42" d="M 1259 2228 
L 1259 519 
L 2272 519 
Q 2781 519 3026 730 
Q 3272 941 3272 1375 
Q 3272 1813 3026 2020 
Q 2781 2228 2272 2228 
L 1259 2228 
z
M 1259 4147 
L 1259 2741 
L 2194 2741 
Q 2656 2741 2882 2914 
Q 3109 3088 3109 3444 
Q 3109 3797 2882 3972 
Q 2656 4147 2194 4147 
L 1259 4147 
z
M 628 4666 
L 2241 4666 
Q 2963 4666 3353 4366 
Q 3744 4066 3744 3513 
Q 3744 3084 3544 2831 
Q 3344 2578 2956 2516 
Q 3422 2416 3680 2098 
Q 3938 1781 3938 1306 
Q 3938 681 3513 340 
Q 3088 0 2303 0 
L 628 0 
L 628 4666 
z
" transform="scale(0.015625)"/>
       </defs>
       <use xlink:href="#DejaVuSans-52"/>
       <use xlink:href="#DejaVuSans-45" transform="translate(69.482422 0)"/>
       <use xlink:href="#DejaVuSans-53" transform="translate(132.666016 0)"/>
       <use xlink:href="#DejaVuSans-33" transform="translate(196.142578 0)"/>
       <use xlink:href="#DejaVuSans-42" transform="translate(259.765625 0)"/>
      </g>
     </g>
    </g>
    <g id="xtick_5">
     <g id="line2d_5">
      <g>
       <use xlink:href="#mae00795680" x="220.264634" y="170.119219" style="stroke: #000000; stroke-width: 0.8"/>
      </g>
     </g>
     <g id="text_5">
      <!-- RES3C -->
      <g transform="translate(223.024009 210.080156) rotate(-90) scale(0.1 -0.1)">
       <defs>
        <path id="DejaVuSans-43" d="M 4122 4306 
L 4122 3641 
Q 3803 3938 3442 4084 
Q 3081 4231 2675 4231 
Q 1875 4231 1450 3742 
Q 1025 3253 1025 2328 
Q 1025 1406 1450 917 
Q 1875 428 2675 428 
Q 3081 428 3442 575 
Q 3803 722 4122 1019 
L 4122 359 
Q 3791 134 3420 21 
Q 3050 -91 2638 -91 
Q 1578 -91 968 557 
Q 359 1206 359 2328 
Q 359 3453 968 4101 
Q 1578 4750 2638 4750 
Q 3056 4750 3426 4639 
Q 3797 4528 4122 4306 
z
" transform="scale(0.015625)"/>
       </defs>
       <use xlink:href="#DejaVuSans-52"/>
       <use xlink:href="#DejaVuSans-45" transform="translate(69.482422 0)"/>
       <use xlink:href="#DejaVuSans-53" transform="translate(132.666016 0)"/>
       <use xlink:href="#DejaVuSans-33" transform="translate(196.142578 0)"/>
       <use xlink:href="#DejaVuSans-43" transform="translate(259.765625 0)"/>
      </g>
     </g>
    </g>
    <g id="xtick_6">
     <g id="line2d_6">
      <g>
       <use xlink:href="#mae00795680" x="261.093902" y="170.119219" style="stroke: #000000; stroke-width: 0.8"/>
      </g>
     </g>
     <g id="text_6">
      <!-- RES3D -->
      <g transform="translate(263.853277 210.797344) rotate(-90) scale(0.1 -0.1)">
       <defs>
        <path id="DejaVuSans-44" d="M 1259 4147 
L 1259 519 
L 2022 519 
Q 2988 519 3436 956 
Q 3884 1394 3884 2338 
Q 3884 3275 3436 3711 
Q 2988 4147 2022 4147 
L 1259 4147 
z
M 628 4666 
L 1925 4666 
Q 3281 4666 3915 4102 
Q 4550 3538 4550 2338 
Q 4550 1131 3912 565 
Q 3275 0 1925 0 
L 628 0 
L 628 4666 
z
" transform="scale(0.015625)"/>
       </defs>
       <use xlink:href="#DejaVuSans-52"/>
       <use xlink:href="#DejaVuSans-45" transform="translate(69.482422 0)"/>
       <use xlink:href="#DejaVuSans-53" transform="translate(132.666016 0)"/>
       <use xlink:href="#DejaVuSans-33" transform="translate(196.142578 0)"/>
       <use xlink:href="#DejaVuSans-44" transform="translate(259.765625 0)"/>
      </g>
     </g>
    </g>
    <g id="xtick_7">
     <g id="line2d_7">
      <g>
       <use xlink:href="#mae00795680" x="301.923171" y="170.119219" style="stroke: #000000; stroke-width: 0.8"/>
      </g>
     </g>
     <g id="text_7">
      <!-- RES3E -->
      <g transform="translate(304.682546 209.416094) rotate(-90) scale(0.1 -0.1)">
       <use xlink:href="#DejaVuSans-52"/>
       <use xlink:href="#DejaVuSans-45" transform="translate(69.482422 0)"/>
       <use xlink:href="#DejaVuSans-53" transform="translate(132.666016 0)"/>
       <use xlink:href="#DejaVuSans-33" transform="translate(196.142578 0)"/>
       <use xlink:href="#DejaVuSans-45" transform="translate(259.765625 0)"/>
      </g>
     </g>
    </g>
    <g id="xtick_8">
     <g id="line2d_8">
      <g>
       <use xlink:href="#mae00795680" x="342.752439" y="170.119219" style="stroke: #000000; stroke-width: 0.8"/>
      </g>
     </g>
     <g id="text_8">
      <!-- RES3F -->
      <g transform="translate(345.511814 208.848906) rotate(-90) scale(0.1 -0.1)">
       <defs>
        <path id="DejaVuSans-46" d="M 628 4666 
L 3309 4666 
L 3309 4134 
L 1259 4134 
L 1259 2759 
L 3109 2759 
L 3109 2228 
L 1259 2228 
L 1259 0 
L 628 0 
L 628 4666 
z
" transform="scale(0.015625)"/>
       </defs>
       <use xlink:href="#DejaVuSans-52"/>
       <use xlink:href="#DejaVuSans-45" transform="translate(69.482422 0)"/>
       <use xlink:href="#DejaVuSans-53" transform="translate(132.666016 0)"/>
       <use xlink:href="#DejaVuSans-33" transform="translate(196.142578 0)"/>
       <use xlink:href="#DejaVuSans-46" transform="translate(259.765625 0)"/>
      </g>
     </g>
    </g>
   </g>
   <g id="matplotlib.axis_2">
    <g id="ytick_1">
     <g id="line2d_9">
      <defs>
       <path id="m6bf2c0315b" d="M 0 0 
L -3.5 0 
" style="stroke: #000000; stroke-width: 0.8"/>
      </defs>
      <g>
       <use xlink:href="#m6bf2c0315b" x="32.45" y="170.119219" style="stroke: #000000; stroke-width: 0.8"/>
      </g>
     </g>
     <g id="text_9">
      <!-- 0 -->
      <g transform="translate(19.0875 173.918438) scale(0.1 -0.1)">
       <defs>
        <path id="DejaVuSans-30" d="M 2034 4250 
Q 1547 4250 1301 3770 
Q 1056 3291 1056 2328 
Q 1056 1369 1301 889 
Q 1547 409 2034 409 
Q 2525 409 2770 889 
Q 3016 1369 3016 2328 
Q 3016 3291 2770 3770 
Q 2525 4250 2034 4250 
z
M 2034 4750 
Q 2819 4750 3233 4129 
Q 3647 3509 3647 2328 
Q 3647 1150 3233 529 
Q 2819 -91 2034 -91 
Q 1250 -91 836 529 
Q 422 1150 422 2328 
Q 422 3509 836 4129 
Q 1250 4750 2034 4750 
z
" transform="scale(0.015625)"/>
       </defs>
       <use xlink:href="#DejaVuSans-30"/>
      </g>
     </g>
    </g>
    <g id="ytick_2">
     <g id="line2d_10">
      <g>
       <use xlink:href="#m6bf2c0315b" x="32.45" y="146.359219" style="stroke: #000000; stroke-width: 0.8"/>
      </g>
     </g>
     <g id="text_10">
      <!-- 500 -->
      <g transform="translate(6.3625 150.158437) scale(0.1 -0.1)">
       <defs>
        <path id="DejaVuSans-35" d="M 691 4666 
L 3169 4666 
L 3169 4134 
L 1269 4134 
L 1269 2991 
Q 1406 3038 1543 3061 
Q 1681 3084 1819 3084 
Q 2600 3084 3056 2656 
Q 3513 2228 3513 1497 
Q 3513 744 3044 326 
Q 2575 -91 1722 -91 
Q 1428 -91 1123 -41 
Q 819 9 494 109 
L 494 744 
Q 775 591 1075 516 
Q 1375 441 1709 441 
Q 2250 441 2565 725 
Q 2881 1009 2881 1497 
Q 2881 1984 2565 2268 
Q 2250 2553 1709 2553 
Q 1456 2553 1204 2497 
Q 953 2441 691 2322 
L 691 4666 
z
" transform="scale(0.015625)"/>
       </defs>
       <use xlink:href="#DejaVuSans-35"/>
       <use xlink:href="#DejaVuSans-30" transform="translate(63.623047 0)"/>
       <use xlink:href="#DejaVuSans-30" transform="translate(127.246094 0)"/>
      </g>
     </g>
    </g>
    <g id="ytick_3">
     <g id="line2d_11">
      <g>
       <use xlink:href="#m6bf2c0315b" x="32.45" y="122.599219" style="stroke: #000000; stroke-width: 0.8"/>
      </g>
     </g>
     <g id="text_11">
      <!-- 1000 -->
      <g transform="translate(0 126.398438) scale(0.1 -0.1)">
       <use xlink:href="#DejaVuSans-31"/>
       <use xlink:href="#DejaVuSans-30" transform="translate(63.623047 0)"/>
       <use xlink:href="#DejaVuSans-30" transform="translate(127.246094 0)"/>
       <use xlink:href="#DejaVuSans-30" transform="translate(190.869141 0)"/>
      </g>
     </g>
    </g>
    <g id="ytick_4">
     <g id="line2d_12">
      <g>
       <use xlink:href="#m6bf2c0315b" x="32.45" y="98.839219" style="stroke: #000000; stroke-width: 0.8"/>
      </g>
     </g>
     <g id="text_12">
      <!-- 1500 -->
      <g transform="translate(0 102.638437) scale(0.1 -0.1)">
       <use xlink:href="#DejaVuSans-31"/>
       <use xlink:href="#DejaVuSans-35" transform="translate(63.623047 0)"/>
       <use xlink:href="#DejaVuSans-30" transform="translate(127.246094 0)"/>
       <use xlink:href="#DejaVuSans-30" transform="translate(190.869141 0)"/>
      </g>
     </g>
    </g>
    <g id="ytick_5">
     <g id="line2d_13">
      <g>
       <use xlink:href="#m6bf2c0315b" x="32.45" y="75.079219" style="stroke: #000000; stroke-width: 0.8"/>
      </g>
     </g>
     <g id="text_13">
      <!-- 2000 -->
      <g transform="translate(0 78.878437) scale(0.1 -0.1)">
       <use xlink:href="#DejaVuSans-32"/>
       <use xlink:href="#DejaVuSans-30" transform="translate(63.623047 0)"/>
       <use xlink:href="#DejaVuSans-30" transform="translate(127.246094 0)"/>
       <use xlink:href="#DejaVuSans-30" transform="translate(190.869141 0)"/>
      </g>
     </g>
    </g>
    <g id="ytick_6">
     <g id="line2d_14">
      <g>
       <use xlink:href="#m6bf2c0315b" x="32.45" y="51.319219" style="stroke: #000000; stroke-width: 0.8"/>
      </g>
     </g>
     <g id="text_14">
      <!-- 2500 -->
      <g transform="translate(0 55.118437) scale(0.1 -0.1)">
       <use xlink:href="#DejaVuSans-32"/>
       <use xlink:href="#DejaVuSans-35" transform="translate(63.623047 0)"/>
       <use xlink:href="#DejaVuSans-30" transform="translate(127.246094 0)"/>
       <use xlink:href="#DejaVuSans-30" transform="translate(190.869141 0)"/>
      </g>
     </g>
    </g>
    <g id="ytick_7">
     <g id="line2d_15">
      <g>
       <use xlink:href="#m6bf2c0315b" x="32.45" y="27.559219" style="stroke: #000000; stroke-width: 0.8"/>
      </g>
     </g>
     <g id="text_15">
      <!-- 3000 -->
      <g transform="translate(0 31.358437) scale(0.1 -0.1)">
       <use xlink:href="#DejaVuSans-33"/>
       <use xlink:href="#DejaVuSans-30" transform="translate(63.623047 0)"/>
       <use xlink:href="#DejaVuSans-30" transform="translate(127.246094 0)"/>
       <use xlink:href="#DejaVuSans-30" transform="translate(190.869141 0)"/>
      </g>
     </g>
    </g>
    <g id="ytick_8">
     <g id="line2d_16">
      <g>
       <use xlink:href="#m6bf2c0315b" x="32.45" y="3.799219" style="stroke: #000000; stroke-width: 0.8"/>
      </g>
     </g>
     <g id="text_16">
      <!-- 3500 -->
      <g transform="translate(0 7.598437) scale(0.1 -0.1)">
       <use xlink:href="#DejaVuSans-33"/>
       <use xlink:href="#DejaVuSans-35" transform="translate(63.623047 0)"/>
       <use xlink:href="#DejaVuSans-30" transform="translate(127.246094 0)"/>
       <use xlink:href="#DejaVuSans-30" transform="translate(190.869141 0)"/>
      </g>
     </g>
    </g>
   </g>
   <g id="patch_43">
    <path d="M 32.45 170.119219 
L 32.45 3.799219 
" style="fill: none; stroke: #000000; stroke-width: 0.8; stroke-linejoin: miter; stroke-linecap: square"/>
   </g>
   <g id="patch_44">
    <path d="M 367.25 170.119219 
L 367.25 3.799219 
" style="fill: none; stroke: #000000; stroke-width: 0.8; stroke-linejoin: miter; stroke-linecap: square"/>
   </g>
   <g id="patch_45">
    <path d="M 32.45 170.119219 
L 367.25 170.119219 
" style="fill: none; stroke: #000000; stroke-width: 0.8; stroke-linejoin: miter; stroke-linecap: square"/>
   </g>
   <g id="patch_46">
    <path d="M 32.45 3.799219 
L 367.25 3.799219 
" style="fill: none; stroke: #000000; stroke-width: 0.8; stroke-linejoin: miter; stroke-linecap: square"/>
   </g>
  </g>
 </g>
 <defs>
  <clipPath id="p7f114d7aa6">
   <rect x="32.45" y="3.799219" width="334.8" height="166.32"/>
  </clipPath>
 </defs>
</svg>
