<?xml version="1.0" encoding="utf-8" standalone="no"?>
<!DOCTYPE svg PUBLIC "-//W3C//DTD SVG 1.1//EN"
  "http://www.w3.org/Graphics/SVG/1.1/DTD/svg11.dtd">
<svg xmlns:xlink="http://www.w3.org/1999/xlink" width="297.395852pt" height="410.4pt" viewBox="0 0 297.395852 410.4" xmlns="http://www.w3.org/2000/svg" version="1.1">
 <metadata>
  <rdf:RDF xmlns:dc="http://purl.org/dc/elements/1.1/" xmlns:cc="http://creativecommons.org/ns#" xmlns:rdf="http://www.w3.org/1999/02/22-rdf-syntax-ns#">
   <cc:Work>
    <dc:type rdf:resource="http://purl.org/dc/dcmitype/StillImage"/>
    <dc:date>2026-01-22T11:22:35.377632</dc:date>
    <dc:format>image/svg+xml</dc:format>
    <dc:creator>
     <cc:Agent>
      <dc:title>Matplotlib v3.10.1, https://matplotlib.org/</dc:title>
     </cc:Agent>
    </dc:creator>
   </cc:Work>
  </rdf:RDF>
 </metadata>
 <defs>
  <style type="text/css">*{stroke-linejoin: round; stroke-linecap: butt}</style>
 </defs>
 <g id="figure_1">
  <g id="patch_1">
   <path d="M 0 410.4 
L 297.395852 410.4 
L 297.395852 0 
L 0 0 
z
" style="fill: #ffffff"/>
  </g>
  <g id="axes_1">
   <g id="patch_2">
    <path d="M 0 410.4 
L 297.395852 410.4 
L 297.395852 0 
L 0 0 
z
" style="fill: #ffffff"/>
   </g>
   <g id="PatchCollection_1">
    <path d="M 31.720891 227.342118 
L 31.489025 217.158753 
L 25.042804 217.306775 
L 24.985412 214.786217 
L -0.465488 215.370836 
L -0.115199 230.74683 
L 6.908007 230.585512 
L 6.847442 227.92663 
L 11.986829 227.808562 
L 12.003215 228.52794 
L 13.551709 228.492377 
L 13.535952 227.799808 
L 16.883818 227.722911 
L 16.902502 228.544681 
L 18.45964 228.508927 
L 18.440628 227.673588 
L 18.818765 227.664917 
L 18.829625 228.141976 
L 20.064678 228.113608 
L 20.053791 227.635044 
L 20.180283 227.632144 
L 20.217623 229.272074 
L 23.847444 229.188721 
L 23.826572 228.272107 
L 25.015038 228.244806 
L 24.998488 227.517578 
L 29.234865 227.420301 
L 29.251771 228.162082 
L 30.442945 228.134726 
L 30.425848 227.383343 
L 30.76131 227.375656 
L 30.772088 227.849459 
L 31.441262 227.834113 
L 31.43021 227.348792 
L 31.720891 227.342118 
" clip-path="url(#p6892c6406d)" style="fill: #034185"/>
    <path d="M 219.938733 332.670323 
L 220.505323 353.275015 
L 220.587117 356.249413 
L 221.182649 356.231795 
L 221.189543 356.468516 
L 222.175714 356.439572 
L 222.262431 359.419774 
L 226.743395 359.288296 
L 225.963896 332.493406 
L 219.938733 332.670323 
" clip-path="url(#p6892c6406d)" style="fill: #034185"/>
    <path d="M 72.294184 312.155619 
L 72.82264 331.099903 
L 83.376202 330.802999 
L 82.971339 316.287628 
L 84.219194 316.25253 
L 84.171486 314.542955 
L 78.942153 314.690052 
L 78.866296 311.970715 
L 72.294184 312.155619 
" clip-path="url(#p6892c6406d)" style="fill: #a7a7d6"/>
    <path d="M 143.920265 99.949685 
L 164.088981 99.357922 
L 163.780081 88.740734 
L 143.617575 89.33233 
L 143.780396 94.927405 
L 143.219113 94.943763 
L 142.873939 94.953802 
L 142.918994 96.079553 
L 143.806876 96.052937 
L 143.920265 99.949685 
" clip-path="url(#p6892c6406d)" style="fill: #a7a7d6"/>
    <path d="M 242.708178 254.084235 
L 262.025012 253.646045 
L 261.849717 245.852054 
L 244.907298 246.236406 
L 244.946472 247.978302 
L 242.572001 248.032194 
L 242.708178 254.084235 
" clip-path="url(#p6892c6406d)" style="fill: #a14059"/>
    <path d="M 155.515667 191.357163 
L 155.98602 191.34674 
L 155.995567 191.780653 
L 156.526869 191.768863 
L 156.517403 191.337303 
L 157.086647 191.324692 
L 157.101228 191.987817 
L 158.36142 191.959887 
L 158.347441 191.326224 
L 160.246087 191.284124 
L 160.169902 187.818729 
L 155.440193 187.923583 
L 155.515667 191.357163 
" clip-path="url(#p6892c6406d)" style="fill: #a7a7d6"/>
    <path d="M 271.649467 303.061756 
L 264.13208 303.256782 
L 264.458324 315.938994 
L 271.975628 315.743968 
L 271.649467 303.061756 
" clip-path="url(#p6892c6406d)" style="fill: #a7a7d6"/>
    <path d="M 93.420293 314.747446 
L 93.735868 327.62594 
L 93.932582 327.621098 
L 93.938655 327.867993 
L 102.17109 327.664568 
L 102.16603 327.459009 
L 102.314242 327.455343 
L 101.99771 314.535486 
L 93.420293 314.747446 
" clip-path="url(#p6892c6406d)" style="fill: #a7a7d6"/>
    <path d="M 103.827557 314.50378 
L 104.169721 327.378388 
L 108.238463 327.269317 
L 108.246779 327.581622 
L 110.355106 327.52513 
L 110.347283 327.231044 
L 110.652353 327.222892 
L 110.310599 314.363276 
L 108.119384 314.422011 
L 108.059913 312.182456 
L 105.806628 312.242832 
L 105.865279 314.449176 
L 103.827557 314.50378 
" clip-path="url(#p6892c6406d)" style="fill: #034185"/>
    <path d="M 121.721131 192.379794 
L 121.613487 188.43606 
L 121.438821 188.440875 
L 121.391714 186.714744 
L 119.737026 186.760319 
L 119.778853 188.293921 
L 117.839912 188.347319 
L 117.952836 192.483526 
L 121.721131 192.379794 
" clip-path="url(#p6892c6406d)" style="fill: #a7a7d6"/>
    <path d="M 122.720679 162.848729 
L 123.371333 192.983804 
L 130.571339 192.827057 
L 130.264135 178.595434 
L 133.71308 178.520371 
L 133.616269 174.036826 
L 134.170193 174.024762 
L 134.138543 172.558735 
L 133.583032 172.570826 
L 133.573649 172.136177 
L 129.29446 172.229349 
L 129.284885 171.785345 
L 129.86425 171.772734 
L 129.840725 170.68194 
L 129.250855 170.694797 
L 129.20725 168.676851 
L 129.819469 168.663529 
L 129.801059 167.811056 
L 129.187855 167.824406 
L 129.114213 164.41386 
L 129.694618 164.401222 
L 129.670463 163.283349 
L 129.091043 163.29596 
L 129.078405 162.710312 
L 122.720679 162.848729 
" clip-path="url(#p6892c6406d)" style="fill: #034185"/>
    <path d="M 221.394683 285.917082 
L 234.700387 285.63118 
L 234.576685 279.825032 
L 233.177197 278.151644 
L 221.234652 278.408274 
L 221.394683 285.917082 
" clip-path="url(#p6892c6406d)" style="fill: #034185"/>
    <path d="M 218.353692 305.750992 
L 219.604885 305.70993 
L 220.215955 324.492027 
L 224.582573 324.348759 
L 224.550266 323.355434 
L 223.741961 323.381943 
L 223.532964 316.957676 
L 224.785032 316.916586 
L 224.715822 314.790122 
L 225.814644 314.754094 
L 225.746857 312.671073 
L 224.654682 312.706911 
L 224.622239 311.709705 
L 225.954459 311.666017 
L 225.893729 309.800074 
L 227.751725 309.739096 
L 227.711813 308.512397 
L 230.187635 308.431202 
L 230.358964 313.697961 
L 230.846606 313.681985 
L 231.19208 324.30176 
L 233.278003 324.233341 
L 233.293513 324.709951 
L 235.355008 324.642325 
L 235.339688 324.17105 
L 237.550626 324.098554 
L 237.289982 316.086365 
L 241.152654 315.959649 
L 241.069739 313.411154 
L 240.904347 313.416543 
L 240.592574 303.832063 
L 224.398169 304.36341 
L 224.424539 304.16554 
L 219.571511 304.324783 
L 219.575751 304.454344 
L 218.31285 304.495789 
L 218.353692 305.750992 
" clip-path="url(#p6892c6406d)" style="fill: #a7a7d6"/>
    <path d="M 240.905167 304.101717 
L 241.175031 312.558501 
L 242.101348 312.528709 
L 242.468624 324.037111 
L 248.005653 323.858909 
L 247.734285 315.355695 
L 247.976492 315.347898 
L 247.764021 308.68975 
L 247.568592 308.696042 
L 247.415319 303.89222 
L 240.905167 304.101717 
" clip-path="url(#p6892c6406d)" style="fill: #034185"/>
    <path d="M 252.047122 345.279268 
L 252.631712 358.856108 
L 248.861147 359.019867 
L 249.418272 371.95924 
L 259.179094 371.535367 
L 258.983584 366.994643 
L 274.073724 366.339411 
L 273.730739 358.371668 
L 268.762625 358.587379 
L 267.716928 334.298221 
L 262.421039 334.528183 
L 262.683052 340.613701 
L 256.19525 340.895396 
L 256.3648 344.833431 
L 256.693971 344.819096 
L 256.705105 345.07699 
L 252.047122 345.279268 
" clip-path="url(#p6892c6406d)" style="fill: #a7a7d6"/>
    <path d="M 251.602921 302.420655 
L 263.107721 302.139949 
L 262.406924 273.169101 
L 250.901987 273.449804 
L 251.602921 302.420655 
" clip-path="url(#p6892c6406d)" style="fill: #a7a7d6"/>
    <path d="M 164.631963 305.96689 
L 164.755638 309.498248 
L 158.267782 309.727387 
L 158.673658 321.319216 
L 160.785213 321.244641 
L 160.797687 321.601045 
L 162.098366 321.555113 
L 162.089174 321.292789 
L 165.020222 321.189244 
L 165.173824 325.575903 
L 175.585684 325.208228 
L 175.575261 324.910011 
L 175.739559 324.904184 
L 175.063656 305.598534 
L 164.631963 305.96689 
" clip-path="url(#p6892c6406d)" style="fill: #034185"/>
    <path d="M 147.306839 176.346028 
L 147.365681 178.746244 
L 154.774247 178.563127 
L 154.743937 177.326199 
L 154.620536 177.329263 
L 154.592004 176.165921 
L 147.306839 176.346028 
" clip-path="url(#p6892c6406d)" style="fill: #034185"/>
    <path d="M 177.351299 305.852512 
L 177.677816 319.077877 
L 177.876692 319.164215 
L 177.880877 319.333444 
L 178.610452 319.315279 
L 178.606541 319.157075 
L 178.69044 319.154996 
L 178.700261 319.553392 
L 179.468708 319.53427 
L 179.458806 319.133056 
L 179.870371 319.122824 
L 179.874174 319.277718 
L 180.846393 319.253507 
L 180.842482 319.09555 
L 183.165687 319.037718 
L 183.169326 319.183885 
L 183.77922 319.168674 
L 183.77539 319.013999 
L 183.846843 319.012221 
L 183.856007 319.382358 
L 184.42019 319.368296 
L 184.409822 318.948945 
L 187.56691 318.870349 
L 187.315347 308.679491 
L 187.918375 308.664472 
L 187.842463 305.591284 
L 177.351299 305.852512 
" clip-path="url(#p6892c6406d)" style="fill: #034185"/>
    <path d="M 191.086241 203.948961 
L 178.291869 204.246098 
L 179.460447 254.981762 
L 174.190683 255.104181 
L 174.370081 262.892699 
L 192.433972 262.47311 
L 191.086241 203.948961 
" clip-path="url(#p6892c6406d)" style="fill: #a7a7d6"/>
    <path d="M 99.980724 51.587641 
L 100.177821 51.715878 
L 99.912636 52.126874 
L 101.719066 53.302065 
L 101.944476 52.952697 
L 109.518379 57.880011 
L 109.265367 58.272189 
L 114.741256 61.834616 
L 116.199886 59.573731 
L 120.021005 62.059632 
L 127.248777 50.856847 
L 104.834491 36.274843 
L 102.69041 37.581655 
L 101.097682 46.014535 
L 99.944259 48.486008 
L 100.252858 48.682383 
L 101.379445 49.399336 
L 99.980724 51.587641 
" clip-path="url(#p6892c6406d)" style="fill: #034185"/>
    <path d="M 96.861113 58.55577 
L 99.446167 45.147874 
L 67.166751 38.872629 
L 65.805808 45.931871 
L 66.311313 46.030154 
L 66.086531 47.195987 
L 65.571096 47.095761 
L 65.458856 47.677912 
L 65.977793 47.778794 
L 65.090813 52.379463 
L 96.861113 58.55577 
" clip-path="url(#p6892c6406d)" style="fill: #a7a7d6"/>
    <path d="M 83.396528 114.628385 
L 82.840716 93.165962 
L 29.63185 94.555875 
L 30.188018 116.018309 
L 83.396528 114.628385 
" clip-path="url(#p6892c6406d)" style="fill: #a14059"/>
    <path d="M 188.319628 285.687807 
L 184.577457 285.790339 
L 184.893388 297.418783 
L 188.635558 297.316251 
L 188.319628 285.687807 
" clip-path="url(#p6892c6406d)" style="fill: #a14059"/>
    <path d="M -5.404276 81.537091 
L -34.506991 82.14964 
L -34.230671 95.387126 
L -5.164641 94.775478 
L -5.282188 89.139152 
L -1.759328 89.065049 
L 0.670783 91.28922 
L 0.734194 94.330555 
L 5.023833 94.24034 
L 6.101098 95.250244 
L 7.740768 95.215777 
L 8.673596 94.227702 
L 14.165624 94.112238 
L 14.160099 93.847255 
L 19.643428 93.731982 
L 20.009912 111.312414 
L 22.213054 113.404259 
L 18.543896 117.169235 
L 19.341696 117.941461 
L 18.082597 119.324247 
L 9.686165 119.500877 
L 9.703071 120.310334 
L 1.946705 120.473533 
L 2.410302 142.689739 
L 24.810719 142.218466 
L 24.344742 119.878812 
L 18.672194 119.998161 
L 20.015055 118.536702 
L 21.015861 119.548803 
L 25.484789 114.998167 
L 23.008611 112.589826 
L 22.812963 112.791376 
L 20.744876 110.810618 
L 20.388405 93.710017 
L 20.522858 93.707172 
L 20.448998 90.164619 
L 14.019108 90.299778 
L 14.030652 90.854009 
L 12.019601 90.896299 
L 13.591238 89.043083 
L 13.55677 87.390843 
L 11.735431 85.577266 
L 11.684987 83.159047 
L 1.629544 83.370497 
L 1.685432 86.051183 
L -0.409327 87.941352 
L -5.268592 88.043549 
L -5.404276 81.537091 
" clip-path="url(#p6892c6406d)" style="fill: #a7a7d6"/>
    <path d="M 30.18851 118.980972 
L 30.59693 132.743516 
L 41.664423 132.457657 
L 41.378556 118.735927 
L 30.18851 118.980972 
" clip-path="url(#p6892c6406d)" style="fill: #a14059"/>
    <path d="M 48.607149 119.103494 
L 48.974727 131.109988 
L 62.81931 130.701606 
L 62.533443 118.89929 
L 48.607149 119.103494 
" clip-path="url(#p6892c6406d)" style="fill: #a14059"/>
    <path d="M 49.534833 173.019125 
L 49.775125 180.576485 
L 60.074171 180.246305 
L 59.837407 172.799024 
L 54.312059 172.976177 
L 54.289956 172.280613 
L 53.422344 172.308433 
L 53.440946 172.893865 
L 49.534833 173.019125 
" clip-path="url(#p6892c6406d)" style="fill: #a14059"/>
    <path d="M 61.69037 70.540208 
L 61.996807 83.697684 
L 60.762958 83.726653 
L 60.812034 85.832456 
L 62.063555 85.803077 
L 62.083415 86.655088 
L 85.562466 86.103731 
L 85.570809 86.461227 
L 86.458582 86.440383 
L 86.450922 86.112265 
L 87.148108 86.095907 
L 86.77205 69.942789 
L 85.111754 69.981769 
L 85.102535 69.585323 
L 84.719747 69.594295 
L 84.728665 69.976955 
L 84.195777 69.989456 
L 84.180923 69.351717 
L 82.59818 69.388864 
L 82.613527 70.04887 
L 61.69037 70.540208 
" clip-path="url(#p6892c6406d)" style="fill: #034185"/>
    <path d="M 46.371454 88.04426 
L 48.031723 88.000356 
L 47.996954 86.675741 
L 54.950868 86.4917 
L 54.922637 85.416722 
L 55.450957 85.402744 
L 55.383389 82.829344 
L 54.861306 82.84313 
L 54.828671 81.59987 
L 52.386195 81.664481 
L 52.370629 81.04824 
L 51.082862 81.071628 
L 51.090959 81.698701 
L 48.439787 81.768866 
L 48.426602 81.267048 
L 47.109646 81.301898 
L 47.122312 81.783637 
L 46.207758 81.807873 
L 46.371454 88.04426 
" clip-path="url(#p6892c6406d)" style="fill: #a7a7d6"/>
    <path d="M 8.940477 159.736607 
L 9.36211 172.590686 
L 8.616504 172.615387 
L 8.875535 180.513047 
L 8.009838 180.541689 
L 8.290015 189.083948 
L 10.279345 189.018158 
L 10.494442 195.57596 
L 16.053027 195.392076 
L 15.296999 172.342463 
L 14.967254 172.353351 
L 14.547318 159.551139 
L 8.940477 159.736607 
" clip-path="url(#p6892c6406d)" style="fill: #034185"/>
    <path d="M 6.388031 260.306609 
L 6.685715 270.467257 
L 9.11621 270.395447 
L 9.56766 285.805248 
L 12.167678 285.728404 
L 12.318681 290.88296 
L 25.50402 290.493458 
L 24.604074 259.768431 
L 6.388031 260.306609 
" clip-path="url(#p6892c6406d)" style="fill: #a7a7d6"/>
    <path d="M -2.370207 171.096893 
L -2.313964 172.311415 
L -1.917663 172.292895 
L -1.694714 172.593914 
L -1.66082 173.325833 
L 0.880629 173.207165 
L 0.824221 171.988786 
L 1.397596 171.962033 
L 1.349477 170.923187 
L -2.370207 171.096893 
" clip-path="url(#p6892c6406d)" style="fill: #a7a7d6"/>
    <path d="M 71.94964 128.347387 
L 72.155409 134.951991 
L 74.53193 134.87734 
L 74.513301 134.279333 
L 74.971071 134.264917 
L 74.831475 129.783411 
L 74.404371 129.796842 
L 74.356854 128.271778 
L 71.94964 128.347387 
" clip-path="url(#p6892c6406d)" style="fill: #a14059"/>
    <path d="M 93.950144 114.473311 
L 94.312388 128.49111 
L 93.81208 128.504131 
L 93.826743 129.071854 
L 89.357979 129.188277 
L 89.43794 132.281327 
L 91.584319 132.225413 
L 91.683729 136.072315 
L 87.769191 136.174349 
L 87.741151 135.089724 
L 86.770163 135.115 
L 86.757989 134.642716 
L 85.945964 134.663861 
L 85.94963 134.806217 
L 84.325744 134.848535 
L 84.465997 140.275411 
L 87.205364 141.454796 
L 91.896829 141.332546 
L 91.884465 140.855173 
L 93.815746 140.80484 
L 93.822858 141.080278 
L 94.234834 141.069527 
L 94.240962 141.30541 
L 94.664045 141.294386 
L 94.71085 143.105481 
L 95.417282 143.087098 
L 95.406367 142.662712 
L 98.12519 142.591863 
L 99.829885 143.672907 
L 100.183839 143.663688 
L 100.177384 143.414894 
L 109.729182 143.166018 
L 109.805094 146.10428 
L 111.844922 146.051129 
L 111.832366 145.565358 
L 112.464938 145.548863 
L 112.479409 146.108657 
L 127.379236 145.720516 
L 127.400984 146.562122 
L 128.451112 146.534794 
L 128.428845 145.673438 
L 131.860775 145.584069 
L 131.043963 113.957181 
L 118.36514 114.287408 
L 118.321235 112.589279 
L 115.137366 112.672246 
L 115.179439 114.300101 
L 99.072079 114.71975 
L 99.062258 114.340121 
L 93.950144 114.473311 
" clip-path="url(#p6892c6406d)" style="fill: #034185"/>
    <path d="M 39.035545 373.432592 
L 40.275877 382.176367 
L 43.709175 386.773499 
L 45.131778 385.70191 
L 46.788928 387.920731 
L 48.786739 386.415856 
L 51.880252 390.558012 
L 51.859762 391.151805 
L 56.86259 391.958467 
L 57.678172 386.422312 
L 58.185236 386.040376 
L 59.39151 387.655556 
L 60.083034 387.134671 
L 52.126316 376.480684 
L 54.304072 374.840287 
L 51.437337 371.001709 
L 47.504744 373.963952 
L 44.201631 369.541189 
L 39.035545 373.432592 
" clip-path="url(#p6892c6406d)" style="fill: #034185"/>
    <path d="M 204.33882 210.566406 
L 205.359378 255.021648 
L 209.687396 254.921442 
L 208.666921 210.466202 
L 204.33882 210.566406 
" clip-path="url(#p6892c6406d)" style="fill: #a14059"/>
    <path d="M 43.693227 294.154467 
L 51.557619 293.938296 
L 53.367086 293.888534 
L 53.872317 293.874637 
L 51.792221 207.850916 
L 41.612091 208.099169 
L 43.693227 294.154467 
" clip-path="url(#p6892c6406d)" style="fill: #a7a7d6"/>
    <path d="M 230.627624 333.379358 
L 231.380998 359.309443 
L 239.143053 359.081968 
L 238.843892 348.784876 
L 236.334121 348.858439 
L 235.87999 333.225449 
L 230.627624 333.379358 
" clip-path="url(#p6892c6406d)" style="fill: #a7a7d6"/>
    <path d="M 224.978272 371.243875 
L 236.574194 371.014567 
L 236.343914 359.266519 
L 224.784239 359.512706 
L 224.978272 371.243875 
" clip-path="url(#p6892c6406d)" style="fill: #a7a7d6"/>
    <path d="M 121.841222 209.515838 
L 123.084728 262.569868 
L 140.021757 262.169565 
L 138.778525 209.115515 
L 121.841222 209.515838 
" clip-path="url(#p6892c6406d)" style="fill: #a7a7d6"/>
    <path d="M 110.10245 286.400798 
L 105.911483 286.48749 
L 105.969258 289.304656 
L 110.160225 289.217964 
L 110.10245 286.400798 
" clip-path="url(#p6892c6406d)" style="fill: #a14059"/>
    <path d="M 117.063614 281.089444 
L 112.935181 281.229426 
L 113.02116 283.788124 
L 117.149647 283.648168 
L 117.063614 281.089444 
" clip-path="url(#p6892c6406d)" style="fill: #a14059"/>
    <path d="M 104.685539 260.21327 
L 104.571357 256.938683 
L 103.942669 256.960787 
L 103.821703 253.49121 
L 100.836217 253.596202 
L 101.158795 262.849421 
L 104.282946 262.739586 
L 104.19549 260.230504 
L 104.685539 260.21327 
" clip-path="url(#p6892c6406d)" style="fill: #a14059"/>
    <path d="M 103.873268 252.581537 
L 103.729897 247.154995 
L 100.46046 247.242069 
L 100.536837 250.134152 
L 100.913688 250.124112 
L 100.980627 252.658599 
L 103.873268 252.581537 
" clip-path="url(#p6892c6406d)" style="fill: #a14059"/>
    <path d="M 145.590382 274.331908 
L 123.607412 274.996283 
L 124.387541 307.970052 
L 114.078593 308.214866 
L 114.454569 324.10408 
L 117.482921 324.032187 
L 117.556699 327.149713 
L 133.634515 326.767976 
L 133.318393 313.404232 
L 135.27238 313.357836 
L 135.131963 307.42073 
L 135.977444 307.400623 
L 135.930119 305.400581 
L 147.489411 305.044152 
L 146.9789 287.400921 
L 145.957933 287.421329 
L 145.590382 274.331908 
" clip-path="url(#p6892c6406d)" style="fill: #034185"/>
    <path d="M 185.510668 181.994015 
L 185.684568 187.64122 
L 187.374353 187.588724 
L 187.363548 187.237754 
L 189.044169 187.185587 
L 188.991975 185.49097 
L 190.270331 185.451278 
L 190.195213 183.012129 
L 189.654036 183.028953 
L 189.626899 182.147041 
L 189.247695 182.158804 
L 189.228574 181.537453 
L 187.751424 181.583328 
L 187.761901 181.924095 
L 185.510668 181.994015 
" clip-path="url(#p6892c6406d)" style="fill: #a7a7d6"/>
    <path d="M 199.521819 172.465726 
L 195.327925 172.689685 
L 195.436965 174.748694 
L 199.630832 174.524736 
L 199.521819 172.465726 
" clip-path="url(#p6892c6406d)" style="fill: #a14059"/>
    <path d="M 60.398691 207.125499 
L 62.765747 302.446698 
L 88.494252 301.802451 
L 86.128044 206.481273 
L 60.398691 207.125499 
" clip-path="url(#p6892c6406d)" style="fill: #a7a7d6"/>
    <path d="M 0.122658 239.290142 
L 0.43558 252.065957 
L 32.295415 251.279086 
L 31.982576 238.502427 
L 29.595741 238.561406 
L 29.582172 238.008679 
L 28.959503 238.024026 
L 28.973072 238.577382 
L 27.481751 238.614203 
L 27.469195 238.101197 
L 25.659728 238.145896 
L 25.67223 238.657261 
L 25.486786 238.661857 
L 25.477512 238.281609 
L 24.027554 238.317418 
L 24.037484 238.721548 
L 22.043285 238.770789 
L 22.033847 238.386137 
L 20.982597 238.41207 
L 20.992117 238.799923 
L 20.588128 238.80988 
L 20.564247 237.833656 
L 18.994607 237.872446 
L 19.018571 238.850039 
L 15.869143 238.927812 
L 15.854589 238.334844 
L 15.191242 238.35123 
L 15.205303 238.92535 
L 11.315002 239.021424 
L 11.301488 238.4699 
L 10.630099 238.486478 
L 10.643804 239.046072 
L 4.963924 239.186381 
L 4.951422 238.676876 
L 4.300713 238.692934 
L 4.312777 239.186627 
L 0.122658 239.290142 
" clip-path="url(#p6892c6406d)" style="fill: #a7a7d6"/>
    <path d="M 147.413745 21.624993 
L 149.032324 22.554807 
L 148.752339 23.046247 
L 150.308274 23.94009 
L 150.533876 23.544115 
L 154.521125 25.83465 
L 160.158303 15.939849 
L 159.002828 15.276081 
L 159.737737 13.986157 
L 153.582881 10.450487 
L 152.731519 11.944906 
L 152.991151 12.094067 
L 152.382515 13.162424 
L 152.123813 13.013838 
L 151.26501 14.521307 
L 151.486892 14.648775 
L 150.497739 16.385005 
L 150.257091 16.246759 
L 149.246027 18.021476 
L 149.493322 18.163552 
L 148.774908 19.424538 
L 148.527339 19.282298 
L 147.871296 20.433841 
L 148.067491 20.47747 
L 147.413745 21.624993 
" clip-path="url(#p6892c6406d)" style="fill: #034185"/>
    <path d="M 184.88964 141.835304 
L 192.850844 141.603443 
L 192.73037 137.43131 
L 199.096932 137.245898 
L 198.757776 125.501958 
L 184.429928 125.919229 
L 184.88964 141.835304 
" clip-path="url(#p6892c6406d)" style="fill: #a7a7d6"/>
    <path d="M 188.781254 153.4549 
L 191.523083 153.349993 
L 191.408545 150.331053 
L 191.46405 150.32892 
L 191.405645 148.790578 
L 188.608312 148.897591 
L 188.781254 153.4549 
" clip-path="url(#p6892c6406d)" style="fill: #a14059"/>
    <path d="M 199.817999 169.632892 
L 199.626701 163.938617 
L 199.803829 163.905408 
L 199.32412 149.627535 
L 192.730944 149.850916 
L 192.919507 155.463234 
L 192.710346 155.483149 
L 192.705367 155.33472 
L 191.215825 155.38519 
L 191.188414 154.569924 
L 188.590038 154.657953 
L 188.698531 157.887177 
L 188.979966 157.877603 
L 189.19572 164.298366 
L 189.051145 164.303235 
L 189.084273 165.289775 
L 183.6858 165.472727 
L 183.864049 170.778395 
L 184.2737 170.764526 
L 184.316293 172.033211 
L 186.490793 171.959516 
L 186.448283 170.695044 
L 187.550961 170.613361 
L 187.460879 167.932404 
L 194.637715 167.689243 
L 194.708867 169.805996 
L 199.817999 169.632892 
" clip-path="url(#p6892c6406d)" style="fill: #a7a7d6"/>
    <path d="M 273.670392 342.61571 
L 273.947396 353.051781 
L 286.903741 352.704949 
L 286.626738 342.268852 
L 273.670392 342.61571 
" clip-path="url(#p6892c6406d)" style="fill: #a7a7d6"/>
    <path d="M 92.429909 184.606815 
L 92.432289 182.436106 
L 92.700511 182.436434 
L 92.702563 180.558129 
L 92.33266 180.557719 
L 92.335669 177.795809 
L 92.187593 177.795672 
L 92.188304 177.119283 
L 93.026371 177.120213 
L 93.028286 175.392256 
L 92.145273 175.391271 
L 92.147435 173.448905 
L 92.904557 173.449753 
L 92.906691 171.510205 
L 91.556553 171.508673 
L 91.559151 169.121566 
L 91.147695 167.998413 
L 89.14332 167.996197 
L 89.125128 184.603177 
L 92.429909 184.606815 
" clip-path="url(#p6892c6406d)" style="fill: #a14059"/>
    <path d="M 95.69869 174.124828 
L 95.790605 177.98571 
L 99.062559 177.907145 
L 99.060863 177.835064 
L 100.37366 177.80355 
L 100.415241 179.548906 
L 101.218786 179.529593 
L 101.245375 180.647089 
L 102.081993 180.62701 
L 102.014616 177.795398 
L 102.160859 177.791869 
L 101.639898 155.911203 
L 99.281404 155.967828 
L 99.394547 160.718714 
L 100.313286 160.696639 
L 100.332682 161.512836 
L 99.390389 161.535459 
L 99.520793 167.012118 
L 98.645905 167.033154 
L 98.722856 170.265593 
L 98.454634 170.272048 
L 98.444349 169.838959 
L 98.357604 169.841038 
L 98.347619 169.42201 
L 96.682782 169.462003 
L 96.704365 170.367765 
L 96.495779 170.372743 
L 96.584602 174.103545 
L 95.69869 174.124828 
" clip-path="url(#p6892c6406d)" style="fill: #a14059"/>
    <path d="M 96.578064 180.223217 
L 96.605365 182.24005 
L 98.171421 182.218685 
L 98.176236 182.571652 
L 101.153652 182.531057 
L 101.156825 182.768775 
L 102.336701 182.75269 
L 102.311425 180.883713 
L 101.063324 180.900728 
L 101.053339 180.162187 
L 96.578064 180.223217 
" clip-path="url(#p6892c6406d)" style="fill: #a14059"/>
    <path d="M 97.268931 187.674812 
L 97.271776 188.044686 
L 97.39288 188.043728 
L 97.443816 194.70879 
L 99.44852 194.693334 
L 99.441544 193.781054 
L 100.482782 193.773011 
L 100.469897 192.087692 
L 100.563782 192.086953 
L 100.552101 190.556412 
L 100.404545 190.536771 
L 100.38463 187.933403 
L 98.10864 187.950938 
L 98.106506 187.668329 
L 97.268931 187.674812 
" clip-path="url(#p6892c6406d)" style="fill: #a14059"/>
    <path d="M 34.196277 374.133348 
L 32.289096 371.597084 
L 30.045358 373.29876 
L 31.952512 375.835025 
L 34.196277 374.133348 
" clip-path="url(#p6892c6406d)" style="fill: #a14059"/>
    <path d="M 23.931864 5.000005 
L 31.474226 9.362682 
L 32.794902 10.126591 
L 33.126835 10.318614 
L 38.167632 1.504693 
L 38.594052 1.75063 
L 39.380609 0.375314 
L 39.464782 0.423867 
L 39.717549 -0.018169 
L 39.238469 -0.294441 
L 40.813744 -3.048764 
L 31.537992 -8.397847 
L 34.038927 -12.770782 
L 34.523177 -12.491557 
L 35.278466 -13.812268 
L 35.344831 -13.774001 
L 35.619016 -14.253426 
L 35.077758 -14.565558 
L 35.294551 -14.94465 
L 26.062868 -20.268218 
L 20.532761 -10.598635 
L 19.217993 -11.356821 
L 15.08078 -4.12275 
L 16.406189 -3.358434 
L 12.20655 3.984881 
L 21.4605 9.321296 
L 23.931864 5.000005 
" clip-path="url(#p6892c6406d)" style="fill: #a7a7d6"/>
    <path d="M 226.449404 203.156359 
L 226.712128 213.93663 
L 224.822947 213.983052 
L 224.882281 216.417576 
L 226.751766 216.371646 
L 226.741481 215.949848 
L 233.129954 215.792826 
L 232.818182 202.99983 
L 226.449404 203.156359 
" clip-path="url(#p6892c6406d)" style="fill: #034185"/>
    <path d="M 186.291042 100.744747 
L 186.429188 106.063945 
L 186.811319 106.053961 
L 186.81452 106.176783 
L 201.627411 105.788976 
L 202.014247 105.326928 
L 201.89298 100.6559 
L 201.542855 100.344686 
L 201.341271 100.349965 
L 201.352651 100.25871 
L 199.655917 100.303134 
L 199.658105 100.386785 
L 198.779989 100.409763 
L 198.77791 100.330325 
L 197.093213 100.37442 
L 197.121389 100.468274 
L 196.228063 100.491662 
L 196.225191 100.381095 
L 194.51984 100.42571 
L 194.522411 100.524707 
L 193.654635 100.547411 
L 193.652693 100.472788 
L 191.93205 100.517868 
L 191.934047 100.595884 
L 191.097156 100.617822 
L 191.094311 100.508267 
L 189.358869 100.553703 
L 189.361741 100.664352 
L 186.291042 100.744747 
" clip-path="url(#p6892c6406d)" style="fill: #a7a7d6"/>
    <path d="M 21.90626 185.258805 
L 25.899336 185.201659 
L 25.871598 183.248179 
L 25.62206 183.251736 
L 25.618722 183.016752 
L 25.133406 183.023673 
L 25.136743 183.258 
L 24.871913 183.261802 
L 24.868083 182.992625 
L 24.581177 182.996728 
L 24.509177 177.924953 
L 25.162403 177.915598 
L 25.149299 176.991998 
L 26.666854 176.970251 
L 26.656267 176.226814 
L 27.544587 176.214093 
L 27.483994 171.946194 
L 26.579507 171.959133 
L 26.549498 169.84495 
L 26.644258 169.84361 
L 26.617832 167.98137 
L 27.364724 167.970674 
L 27.316304 164.559007 
L 24.924792 164.593256 
L 24.896889 162.628082 
L 19.483836 162.705552 
L 19.688182 177.103198 
L 18.928297 177.114112 
L 19.019173 183.515305 
L 21.880901 183.474327 
L 21.90626 185.258805 
" clip-path="url(#p6892c6406d)" style="fill: #034185"/>
    <path d="M 242.133107 207.157888 
L 242.450898 219.957796 
L 254.050841 219.667414 
L 253.851117 211.620147 
L 260.980464 211.441706 
L 261.441844 230.032567 
L 303.467694 228.98098 
L 303.348369 224.171712 
L 303.241572 224.193077 
L 303.11497 219.089852 
L 303.287694 219.08553 
L 302.906137 203.703581 
L 288.029754 204.075754 
L 288.259131 213.321208 
L 287.642781 213.336609 
L 287.706574 215.909088 
L 288.324976 215.893604 
L 288.4138 219.473736 
L 292.783591 219.364394 
L 292.908223 224.389246 
L 284.552578 224.598326 
L 283.956143 200.559983 
L 281.841414 200.612916 
L 281.857773 201.273909 
L 279.230865 201.339645 
L 279.283853 203.473246 
L 278.662333 203.488812 
L 279.176838 224.223798 
L 266.62418 224.537952 
L 266.109264 203.78997 
L 265.484543 203.805617 
L 265.431829 201.681672 
L 262.801994 201.74749 
L 262.7858 201.095004 
L 253.575181 201.325584 
L 253.712752 206.868 
L 242.133107 207.157888 
" clip-path="url(#p6892c6406d)" style="fill: #a7a7d6"/>
    <path d="M 167.751601 211.518822 
L 163.126473 211.628327 
L 163.532759 228.934475 
L 168.157887 228.82497 
L 167.751601 211.518822 
" clip-path="url(#p6892c6406d)" style="fill: #034185"/>
    <path d="M 157.666724 214.160317 
L 156.778951 214.184035 
L 156.776954 214.107411 
L 152.114293 214.231853 
L 152.339376 222.738048 
L 153.449249 222.708422 
L 153.484374 224.035973 
L 157.048842 223.940856 
L 157.01131 222.520706 
L 157.887292 222.497372 
L 157.666724 214.160317 
" clip-path="url(#p6892c6406d)" style="fill: #034185"/>
    <path d="M 152.914802 229.478611 
L 152.987677 232.705622 
L 152.745607 232.71112 
L 152.912011 240.080347 
L 163.668771 239.835401 
L 163.429573 229.239192 
L 152.914802 229.478611 
" clip-path="url(#p6892c6406d)" style="fill: #034185"/>
    <path d="M -17.062678 310.018763 
L 1.482097 296.232276 
L -25.324959 259.8656 
L -31.585463 264.519791 
L -35.288405 259.496511 
L -47.572731 268.628999 
L -17.062678 310.018763 
" clip-path="url(#p6892c6406d)" style="fill: #a7a7d6"/>
    <path d="M 120.713185 28.852747 
L 114.892341 37.670911 
L 128.144866 46.491837 
L 133.977801 37.655346 
L 125.993864 32.341172 
L 126.361716 31.783917 
L 122.316855 29.091629 
L 121.936912 29.667321 
L 120.713185 28.852747 
" clip-path="url(#p6892c6406d)" style="fill: #a7a7d6"/>
    <path d="M 198.426855 111.543671 
L 184.851889 111.860111 
L 185.101427 122.653085 
L 198.676339 122.336589 
L 198.426855 111.543671 
" clip-path="url(#p6892c6406d)" style="fill: #a7a7d6"/>
    <path d="M 103.462824 179.267036 
L 103.55069 182.691414 
L 105.03219 182.653089 
L 105.044664 183.140673 
L 106.106392 183.113235 
L 106.093699 182.618266 
L 107.405374 182.584318 
L 107.317399 179.154414 
L 106.893605 179.165384 
L 106.883538 178.772806 
L 105.526206 178.80763 
L 105.312449 178.813128 
L 105.322844 179.218891 
L 103.462824 179.267036 
" clip-path="url(#p6892c6406d)" style="fill: #a7a7d6"/>
    <path d="M 209.960214 397.540729 
L 210.573473 418.981803 
L 236.056023 418.246784 
L 235.442983 396.805688 
L 209.960214 397.540729 
" clip-path="url(#p6892c6406d)" style="fill: #a7a7d6"/>
    <path d="M -14.487144 69.765697 
L -14.242804 81.455356 
L 9.957588 80.945469 
L 9.713411 69.255812 
L -14.487144 69.765697 
" clip-path="url(#p6892c6406d)" style="fill: #a7a7d6"/>
    <path d="M 272.514589 304.1021 
L 272.919425 317.548554 
L 293.07367 316.936612 
L 292.668943 303.491118 
L 292.163739 303.506465 
L 292.149678 303.038421 
L 290.700267 303.082411 
L 290.714328 303.549497 
L 272.514589 304.1021 
" clip-path="url(#p6892c6406d)" style="fill: #a7a7d6"/>
    <path d="M 294.239486 316.130054 
L 294.447115 321.52171 
L 299.089997 321.316261 
L 300.754315 321.242617 
L 300.548026 315.885074 
L 294.239486 316.130054 
" clip-path="url(#p6892c6406d)" style="fill: #034185"/>
    <path d="M 261.877455 418.197951 
L 281.848773 417.720258 
L 281.356399 396.953856 
L 281.940332 396.939877 
L 281.737353 388.378092 
L 273.17769 388.58278 
L 273.363435 396.414777 
L 261.367601 396.70173 
L 261.877455 418.197951 
" clip-path="url(#p6892c6406d)" style="fill: #a7a7d6"/>
    <path d="M 287.875988 392.082724 
L 288.287991 406.535721 
L 304.633975 406.065773 
L 304.221807 391.604571 
L 303.322818 390.747298 
L 298.931909 390.873553 
L 298.957268 391.764147 
L 287.875988 392.082724 
" clip-path="url(#p6892c6406d)" style="fill: #034185"/>
    <path d="M 187.900758 16.386045 
L 181.979027 22.429909 
L 190.443547 30.609091 
L 190.951651 47.408583 
L 199.458655 47.149157 
L 198.845725 26.881157 
L 187.900758 16.386045 
" clip-path="url(#p6892c6406d)" style="fill: #a7a7d6"/>
    <path d="M 176.584904 28.877339 
L 169.903944 35.900284 
L 176.918205 42.628671 
L 183.599165 35.605736 
L 176.584904 28.877339 
" clip-path="url(#p6892c6406d)" style="fill: #a7a7d6"/>
    <path d="M 176.25163 50.004027 
L 176.434283 58.601616 
L 199.263993 58.112659 
L 199.081394 49.515044 
L 176.25163 50.004027 
" clip-path="url(#p6892c6406d)" style="fill: #a7a7d6"/>
    <path d="M 30.870487 166.191378 
L 31.344067 183.273729 
L 35.919518 183.145815 
L 36.219391 193.962859 
L 39.451187 193.872503 
L 39.488254 195.209095 
L 44.11144 195.079868 
L 43.295995 165.659947 
L 41.211659 165.718241 
L 41.216775 165.90215 
L 30.870487 166.191378 
" clip-path="url(#p6892c6406d)" style="fill: #034185"/>
    <path d="M 41.258137 8.929207 
L 43.473451 10.19369 
L 44.588003 8.224847 
L 54.099315 13.65389 
L 59.220291 4.607616 
L 59.545714 4.793348 
L 60.462484 3.173816 
L 59.510699 2.630517 
L 59.503778 2.67896 
L 57.59977 1.592143 
L 57.650679 1.502204 
L 50.840382 -2.385082 
L 50.384746 -1.580173 
L 47.983276 -2.95092 
L 41.258137 8.929207 
" clip-path="url(#p6892c6406d)" style="fill: #a14059"/>
    <path d="M 189.867 64.029989 
L 190.122529 74.705323 
L 192.268552 74.653513 
L 192.562242 86.922971 
L 189.43954 86.998333 
L 189.632206 95.048094 
L 203.190294 94.720878 
L 202.998941 86.726648 
L 204.717641 86.685151 
L 204.167164 63.684859 
L 189.867 64.029989 
" clip-path="url(#p6892c6406d)" style="fill: #a7a7d6"/>
    <path d="M 193.429444 379.563578 
L 193.219051 369.705086 
L 194.380955 369.680027 
L 194.426858 371.830196 
L 203.40126 371.636999 
L 203.420628 372.542989 
L 208.340869 372.437089 
L 208.320106 371.464812 
L 217.442777 371.268497 
L 217.190339 359.437529 
L 220.61305 359.363911 
L 220.482509 353.245852 
L 216.827548 353.324477 
L 216.783725 351.270947 
L 214.680568 351.316222 
L 214.724309 353.366907 
L 210.161196 353.465092 
L 210.253467 357.789317 
L 208.638006 357.824088 
L 208.679915 359.788739 
L 195.483579 360.072761 
L 195.450588 358.527439 
L 194.080453 358.55693 
L 194.117848 360.308552 
L 193.2083 360.32814 
L 193.274857 363.446171 
L 182.193112 363.684725 
L 182.480073 377.128012 
L 184.676485 377.080712 
L 184.733467 379.750757 
L 193.429444 379.563578 
" clip-path="url(#p6892c6406d)" style="fill: #a7a7d6"/>
    <path d="M 162.713731 203.132477 
L 162.907737 211.382043 
L 165.958576 211.309715 
L 165.890378 208.410531 
L 167.191932 208.379701 
L 167.168297 207.374216 
L 165.868302 207.405019 
L 165.766129 203.060067 
L 162.713731 203.132477 
" clip-path="url(#p6892c6406d)" style="fill: #a7a7d6"/>
    <path d="M 87.395349 309.331099 
L 87.428668 311.456383 
L 92.584687 311.374887 
L 92.551368 309.249576 
L 87.395349 309.331099 
" clip-path="url(#p6892c6406d)" style="fill: #a14059"/>
    <path d="M 79.015275 184.196729 
L 76.252819 184.267963 
L 76.236625 183.635587 
L 75.698238 183.649511 
L 75.714105 184.270753 
L 75.527375 184.275568 
L 75.690962 190.671114 
L 79.17856 190.581142 
L 79.015275 184.196729 
" clip-path="url(#p6892c6406d)" style="fill: #a7a7d6"/>
    <path d="M 42.289937 53.910586 
L 54.900808 53.66697 
L 54.677093 42.308108 
L 54.673619 42.131292 
L 49.03335 42.240243 
L 48.890143 34.972135 
L 48.885985 34.760251 
L 41.880505 33.134247 
L 41.882584 33.240353 
L 42.289937 53.910586 
" clip-path="url(#p6892c6406d)" style="fill: #a7a7d6"/>
    <path d="M 174.010765 181.248306 
L 171.625407 181.295084 
L 171.623191 181.181395 
L 168.919605 181.234437 
L 168.968681 183.757839 
L 171.086747 183.716286 
L 171.14113 186.512998 
L 172.010985 186.495955 
L 172.023185 187.124967 
L 171.048504 187.144089 
L 171.056546 187.557922 
L 169.971758 187.579177 
L 169.968558 187.415537 
L 169.200028 187.430637 
L 169.204104 187.641247 
L 169.0528 187.644229 
L 169.080593 189.072869 
L 169.68581 189.060997 
L 169.70846 190.225438 
L 169.962594 190.220459 
L 170.008552 190.491142 
L 170.171892 190.761688 
L 170.472367 190.917122 
L 170.699665 190.912636 
L 170.73126 192.536104 
L 173.387029 192.484019 
L 173.373816 191.803222 
L 173.443901 191.813289 
L 173.398436 189.474557 
L 173.325068 189.475979 
L 173.303074 188.345131 
L 174.148473 188.328553 
L 174.010765 181.248306 
" clip-path="url(#p6892c6406d)" style="fill: #a7a7d6"/>
    <path d="M 173.516393 172.63243 
L 155.668366 173.103434 
L 155.834278 179.443588 
L 171.053865 179.041956 
L 171.081823 180.109528 
L 172.087307 180.082966 
L 172.060034 179.040369 
L 173.682907 178.997558 
L 173.516393 172.63243 
" clip-path="url(#p6892c6406d)" style="fill: #034185"/>
    <path d="M 250.256558 259.749993 
L 250.265941 260.254441 
L 244.513541 260.362498 
L 244.60335 265.184547 
L 249.107019 265.099907 
L 249.088773 264.121841 
L 258.332218 263.948238 
L 258.251218 259.599808 
L 250.256558 259.749993 
" clip-path="url(#p6892c6406d)" style="fill: #a14059"/>
    <path d="M 93.01149 336.488989 
L 88.651055 336.560226 
L 88.78414 344.775954 
L 88.920426 344.77371 
L 89.050639 352.811504 
L 94.368385 352.724618 
L 94.236968 344.611155 
L 93.143344 344.628992 
L 93.01149 336.488989 
" clip-path="url(#p6892c6406d)" style="fill: #a7a7d6"/>
    <path d="M 77.414285 391.714493 
L 84.935201 391.501762 
L 84.455437 374.392066 
L 85.476213 374.363176 
L 85.445712 373.275506 
L 84.407072 373.304888 
L 84.114996 362.889015 
L 86.50246 362.82147 
L 86.420585 359.901451 
L 84.044255 359.96864 
L 83.733029 348.869409 
L 80.673574 348.955912 
L 80.619109 347.012744 
L 76.189683 347.138039 
L 76.293579 350.842836 
L 75.984543 350.851618 
L 76.02864 352.423773 
L 76.290762 352.416359 
L 76.395835 356.163786 
L 76.149442 356.170762 
L 76.190421 357.631111 
L 76.447017 357.623861 
L 76.556248 361.518504 
L 76.256129 361.527012 
L 76.298202 363.027634 
L 76.607677 363.018852 
L 76.711628 366.725776 
L 76.404041 366.734476 
L 76.446826 368.26016 
L 76.710589 368.252691 
L 76.822884 372.255491 
L 76.583795 372.262248 
L 76.624063 373.697 
L 76.873027 373.689941 
L 76.977689 377.422103 
L 76.720957 377.429353 
L 76.762756 378.919615 
L 77.025671 378.912174 
L 77.141085 383.027236 
L 76.891245 383.034294 
L 76.929215 384.387991 
L 77.199899 384.380358 
L 77.304097 388.096913 
L 77.03716 388.104463 
L 77.079233 389.605072 
L 77.354924 389.597302 
L 77.414285 391.714493 
" clip-path="url(#p6892c6406d)" style="fill: #034185"/>
    <path d="M 39.779509 66.991667 
L 21.717041 67.298965 
L 21.8086 72.724017 
L 24.759728 72.673822 
L 24.850357 78.045187 
L 39.961588 77.788137 
L 39.779509 66.991667 
" clip-path="url(#p6892c6406d)" style="fill: #a7a7d6"/>
    <path d="M 151.553749 211.405897 
L 155.286646 211.318824 
L 156.129008 211.299155 
L 159.024959 211.231642 
L 158.940019 207.542508 
L 158.152615 207.560782 
L 158.137733 206.915079 
L 157.413137 206.931903 
L 157.407994 206.709228 
L 156.070166 206.740276 
L 156.075035 206.951708 
L 151.453682 207.059024 
L 151.553749 211.405897 
" clip-path="url(#p6892c6406d)" style="fill: #a7a7d6"/>
    <path d="M 108.855661 376.756801 
L 108.251485 376.772368 
L 108.3135 379.203201 
L 108.239612 379.205088 
L 108.324551 382.532697 
L 111.45029 382.452212 
L 111.419378 381.240336 
L 119.52822 381.031627 
L 119.039129 361.868237 
L 117.127735 361.917453 
L 117.119501 361.595022 
L 116.659051 361.606867 
L 116.656999 361.527039 
L 115.420442 361.558855 
L 115.422795 361.651158 
L 114.962426 361.663004 
L 114.970633 361.983466 
L 108.482804 362.150454 
L 108.855661 376.756801 
" clip-path="url(#p6892c6406d)" style="fill: #034185"/>
    <path d="M 107.87135 342.638854 
L 108.352017 355.72309 
L 119.034506 355.327288 
L 118.694557 346.072949 
L 119.405859 346.046604 
L 119.265196 342.216737 
L 107.87135 342.638854 
" clip-path="url(#p6892c6406d)" style="fill: #034185"/>
    <path d="M 114.953837 408.854879 
L 108.462643 416.022304 
L 108.789406 416.349037 
L 108.309506 416.83915 
L 114.557946 422.506078 
L 114.956135 422.077219 
L 115.328828 422.378454 
L 115.247144 422.475438 
L 115.466646 422.689867 
L 115.53301 422.618382 
L 115.961838 423.05233 
L 115.869923 423.1187 
L 116.650981 423.797719 
L 116.742869 423.705824 
L 117.125766 424.078519 
L 116.982778 424.303126 
L 117.70773 424.987261 
L 117.978277 424.604362 
L 118.190611 424.785087 
L 118.240262 426.548787 
L 115.177825 426.63573 
L 115.244354 429.000427 
L 118.295602 428.913812 
L 118.432052 433.762054 
L 116.947434 433.804185 
L 117.130799 440.320282 
L 115.064299 440.378937 
L 115.175171 444.317383 
L 117.41672 444.253749 
L 117.436909 444.971703 
L 120.10154 444.896058 
L 120.081406 444.180703 
L 126.719719 443.992316 
L 126.706342 443.515659 
L 128.234729 443.472297 
L 128.46717 451.732542 
L 134.814583 451.552417 
L 134.222661 430.514982 
L 127.621169 430.702328 
L 127.325537 420.196157 
L 115.2028 409.083096 
L 114.953837 408.854879 
" clip-path="url(#p6892c6406d)" style="fill: #034185"/>
    <path d="M 205.182687 389.382711 
L 194.110326 389.734062 
L 194.162356 391.386669 
L 189.700896 391.528244 
L 189.646978 389.815012 
L 185.131491 389.958338 
L 185.988735 417.198985 
L 184.185533 417.256217 
L 184.198144 417.656843 
L 182.831128 417.700205 
L 182.897274 419.802808 
L 184.232722 419.760431 
L 184.210864 419.935438 
L 206.122053 419.24006 
L 205.182687 389.382711 
" clip-path="url(#p6892c6406d)" style="fill: #034185"/>
    <path d="M 151.595302 396.644142 
L 143.125173 396.888198 
L 143.11579 396.560401 
L 141.564151 396.605103 
L 141.574026 396.951203 
L 135.668818 397.121394 
L 136.085608 411.708031 
L 134.897142 411.742283 
L 134.926796 412.779766 
L 131.591486 412.875901 
L 131.698146 416.608333 
L 134.028737 416.54117 
L 134.079126 418.304919 
L 135.836371 418.25428 
L 135.785982 416.489847 
L 136.244162 416.476606 
L 136.275292 417.566782 
L 138.27116 418.137053 
L 138.148634 418.657806 
L 139.92511 419.025357 
L 140.047608 418.47399 
L 144.397731 419.318713 
L 146.118401 419.269141 
L 146.166191 420.941627 
L 147.020918 420.917005 
L 147.011207 420.57725 
L 148.407932 420.537006 
L 148.370345 419.220937 
L 150.971593 419.145977 
L 151.003353 420.258915 
L 152.268935 420.222448 
L 151.595302 396.644142 
" clip-path="url(#p6892c6406d)" style="fill: #034185"/>
    <path d="M 82.08094 193.100722 
L 86.859397 192.999479 
L 86.794837 189.925977 
L 82.01638 190.027193 
L 82.08094 193.100722 
" clip-path="url(#p6892c6406d)" style="fill: #a7a7d6"/>
    <path d="M 189.907596 312.089142 
L 190.251018 324.844656 
L 196.320279 324.679831 
L 196.325723 324.882955 
L 196.942975 324.866158 
L 196.937942 324.678354 
L 202.033314 324.540011 
L 202.047019 325.048081 
L 203.559157 325.007046 
L 203.544084 324.445958 
L 207.260896 324.345039 
L 206.917364 311.581758 
L 204.762204 311.640274 
L 204.698766 309.283279 
L 191.925622 309.63008 
L 191.99029 312.032596 
L 189.907596 312.089142 
" clip-path="url(#p6892c6406d)" style="fill: #034185"/>
    <path d="M 161.865569 -0.998251 
L 158.944396 4.124604 
L 166.220861 8.308276 
L 169.141979 3.185441 
L 161.865569 -0.998251 
" clip-path="url(#p6892c6406d)" style="fill: #034185"/>
    <path d="M 156.783355 29.17484 
L 156.330099 29.966655 
L 159.107518 31.569845 
L 159.354868 31.137761 
L 162.130208 32.739693 
L 168.721386 21.225353 
L 168.983481 21.376647 
L 174.624352 11.522564 
L 174.383923 11.383798 
L 174.647522 10.923297 
L 177.407515 12.516382 
L 179.168726 9.439683 
L 176.70505 8.017615 
L 176.771086 7.852535 
L 170.474227 4.217962 
L 170.359114 4.419039 
L 169.904573 4.156662 
L 162.342542 17.366871 
L 163.24454 17.887552 
L 161.511122 20.915707 
L 156.783355 29.17484 
" clip-path="url(#p6892c6406d)" style="fill: #034185"/>
    <path d="M 167.510625 333.967777 
L 168.203544 357.487103 
L 174.226245 357.308133 
L 173.532533 333.760139 
L 171.160689 333.83061 
L 171.152182 333.541913 
L 169.816679 333.581608 
L 169.826007 333.898975 
L 167.510625 333.967777 
" clip-path="url(#p6892c6406d)" style="fill: #034185"/>
    <path d="M 151.283858 51.633186 
L 150.602839 52.618976 
L 150.231295 52.360151 
L 149.313814 53.688306 
L 149.693346 53.952684 
L 148.04257 56.342321 
L 147.316332 55.836432 
L 142.779617 62.403667 
L 151.352329 68.375303 
L 154.722162 63.450953 
L 155.68995 62.036682 
L 159.088779 57.069998 
L 151.283858 51.633186 
" clip-path="url(#p6892c6406d)" style="fill: #a7a7d6"/>
    <path d="M 273.36141 285.173945 
L 273.688009 295.813502 
L 275.881522 295.745576 
L 275.950513 297.994857 
L 282.303232 297.798218 
L 281.907642 284.909408 
L 273.36141 285.173945 
" clip-path="url(#p6892c6406d)" style="fill: #a14059"/>
    <path d="M 175.388997 364.715297 
L 144.763093 365.511227 
L 145.144704 380.316835 
L 175.778733 379.520737 
L 175.568778 371.54486 
L 175.388997 364.715297 
" clip-path="url(#p6892c6406d)" style="fill: #034185"/>
    <path d="M 295.405711 334.676348 
L 296.080055 356.440804 
L 309.352714 356.026097 
L 309.229477 352.048489 
L 309.591392 352.037218 
L 309.440717 347.173822 
L 309.072455 347.185339 
L 308.67216 334.264189 
L 304.601285 334.391399 
L 304.587908 333.961075 
L 299.407323 334.122946 
L 299.420563 334.550889 
L 295.405711 334.676348 
" clip-path="url(#p6892c6406d)" style="fill: #034185"/>
    <path d="M 64.18028 401.212216 
L 56.946983 406.575609 
L 56.513614 405.986162 
L 56.404 406.067442 
L 55.992818 405.508144 
L 58.120321 403.930652 
L 56.88308 402.247726 
L 62.06733 398.403667 
L 60.779755 396.652295 
L 52.56655 396.181801 
L 49.267897 398.627779 
L 51.561066 401.747001 
L 50.816281 402.299213 
L 52.303553 404.322276 
L 53.021639 403.789816 
L 53.654293 404.650347 
L 53.795776 404.545458 
L 55.879702 407.380113 
L 55.74793 407.477807 
L 63.624441 418.19185 
L 65.911373 416.496112 
L 64.383369 414.417641 
L 70.535024 409.856304 
L 64.18028 401.212216 
" clip-path="url(#p6892c6406d)" style="fill: #034185"/>
    <path d="M -11.25264 371.068488 
L -11.054749 381.260034 
L -13.829788 381.314393 
L -12.930608 427.624768 
L -6.465812 427.498184 
L -6.407052 430.525132 
L 6.31584 430.276039 
L 6.25325 427.052444 
L 12.561243 426.928951 
L 12.058063 401.00211 
L 13.115879 400.981401 
L 13.052879 397.735706 
L 11.78292 397.760547 
L 11.450057 380.609531 
L -1.418832 380.861465 
L -1.612592 370.879723 
L -11.25264 371.068488 
" clip-path="url(#p6892c6406d)" style="fill: #034185"/>
    <path d="M 133.215071 379.962202 
L 133.089262 374.721447 
L 137.983379 374.602935 
L 137.669117 361.511391 
L 157.928873 361.020959 
L 157.485055 342.524721 
L 163.942929 342.368431 
L 163.754476 334.514587 
L 150.909168 334.82547 
L 150.921861 335.354306 
L 150.370234 335.367657 
L 150.353328 334.6636 
L 149.020725 334.695854 
L 149.037768 335.406722 
L 148.823765 335.41192 
L 148.946975 340.54457 
L 151.08646 340.492784 
L 151.459044 356.016659 
L 147.163222 356.120616 
L 147.123174 354.452792 
L 142.622842 354.5617 
L 142.141793 334.52066 
L 135.921857 334.671232 
L 136.263885 348.919828 
L 133.470272 348.987482 
L 133.31511 342.5239 
L 130.266132 342.597682 
L 130.243974 341.674823 
L 127.915735 341.731178 
L 127.93855 342.682325 
L 126.272837 342.722649 
L 126.425646 349.086433 
L 125.728432 349.103312 
L 126.036347 361.929736 
L 120.095029 362.07358 
L 120.531926 380.269343 
L 133.215071 379.962202 
" clip-path="url(#p6892c6406d)" style="fill: #034185"/>
    <path d="M 212.347131 111.320702 
L 204.455164 111.544409 
L 204.576021 115.843567 
L 212.467988 115.619805 
L 212.347131 111.320702 
" clip-path="url(#p6892c6406d)" style="fill: #a14059"/>
    <path d="M 204.558432 116.853698 
L 204.634918 121.172969 
L 212.609745 121.030587 
L 212.533286 116.711288 
L 204.558432 116.853698 
" clip-path="url(#p6892c6406d)" style="fill: #a14059"/>
    <path d="M 204.786058 122.199569 
L 204.940973 126.496636 
L 212.800742 126.210832 
L 212.6458 121.913766 
L 204.786058 122.199569 
" clip-path="url(#p6892c6406d)" style="fill: #a14059"/>
    <path d="M 218.842729 122.704704 
L 218.980027 129.871329 
L 217.814321 129.893815 
L 217.844002 131.444539 
L 219.035532 131.421533 
L 219.073119 133.384251 
L 223.352855 133.30153 
L 223.148289 122.621518 
L 218.842729 122.704704 
" clip-path="url(#p6892c6406d)" style="fill: #a14059"/>
    <path d="M 218.29455 134.522081 
L 218.364334 137.768133 
L 224.939482 137.62564 
L 224.869725 134.379589 
L 218.29455 134.522081 
" clip-path="url(#p6892c6406d)" style="fill: #a14059"/>
    <path d="M 205.342882 133.838152 
L 205.566706 142.303048 
L 209.834378 142.189278 
L 209.610582 133.724355 
L 205.342882 133.838152 
" clip-path="url(#p6892c6406d)" style="fill: #a14059"/>
    <path d="M 247.406018 135.180269 
L 246.914765 137.669107 
L 251.185994 138.519301 
L 251.677246 136.030461 
L 247.406018 135.180269 
" clip-path="url(#p6892c6406d)" style="fill: #a14059"/>
    <path d="M 258.058689 303.322301 
L 250.708364 303.570124 
L 251.401282 324.296344 
L 258.75158 324.048519 
L 258.058689 303.322301 
" clip-path="url(#p6892c6406d)" style="fill: #034185"/>
    <path d="M 150.292325 -4.309247 
L 136.690934 -12.175459 
L 123.96982 10.038977 
L 136.425858 15.184391 
L 144.812333 0.435383 
L 146.883784 1.633419 
L 150.292325 -4.309247 
" clip-path="url(#p6892c6406d)" style="fill: #a7a7d6"/>
    <path d="M 172.299778 124.041837 
L 151.862758 124.521915 
L 151.847603 123.872155 
L 149.5761 123.925551 
L 149.591364 124.580482 
L 147.635819 124.626438 
L 147.620445 123.967678 
L 145.640251 124.014208 
L 145.655516 124.669658 
L 143.470566 124.720976 
L 143.761055 137.187331 
L 143.361006 137.196741 
L 143.421791 139.805205 
L 143.809913 139.796096 
L 143.901937 143.747121 
L 143.532718 143.755765 
L 143.566502 145.205721 
L 143.932876 145.197104 
L 143.941247 145.556467 
L 154.614025 145.305703 
L 154.37573 135.077551 
L 172.546882 134.650704 
L 172.299778 124.041837 
" clip-path="url(#p6892c6406d)" style="fill: #034185"/>
    <path d="M 207.026403 146.012695 
L 207.677823 171.822904 
L 214.699689 171.644191 
L 214.048379 145.833985 
L 207.026403 146.012695 
" clip-path="url(#p6892c6406d)" style="fill: #a14059"/>
    <path d="M 232.395263 145.466278 
L 229.13882 162.606006 
L 229.154112 162.897011 
L 229.220477 163.157324 
L 229.348063 163.33092 
L 229.470617 163.468763 
L 229.628185 163.595637 
L 240.185768 165.618476 
L 240.421054 164.380103 
L 240.551431 164.405079 
L 243.750264 147.569172 
L 233.23489 145.554388 
L 233.221541 145.624609 
L 232.395263 145.466278 
" clip-path="url(#p6892c6406d)" style="fill: #a14059"/>
    <path d="M 245.654545 148.076582 
L 243.734589 158.081973 
L 245.852874 158.491891 
L 243.507483 170.714192 
L 263.654834 174.613066 
L 264.155962 172.897695 
L 265.308236 173.120641 
L 268.932859 154.23269 
L 267.743655 154.002551 
L 268.077667 152.262025 
L 247.878997 148.353279 
L 247.818158 148.495252 
L 245.654545 148.076582 
" clip-path="url(#p6892c6406d)" style="fill: #a7a7d6"/>
    <path d="M 267.185654 171.915255 
L 266.552371 175.149532 
L 272.944538 176.411681 
L 273.577793 173.177403 
L 267.185654 171.915255 
" clip-path="url(#p6892c6406d)" style="fill: #a14059"/>
    <path d="M 282.157782 170.262693 
L 281.469979 176.851884 
L 296.519633 178.436089 
L 296.562855 178.02201 
L 297.807537 178.15307 
L 298.399924 172.478064 
L 297.226503 172.354527 
L 297.278725 171.85439 
L 282.157782 170.262693 
" clip-path="url(#p6892c6406d)" style="fill: #a14059"/>
    <path d="M 273.979046 183.515168 
L 274.05173 187.53839 
L 296.57615 187.128222 
L 296.503494 183.105001 
L 273.979046 183.515168 
" clip-path="url(#p6892c6406d)" style="fill: #a14059"/>
    <path d="M 226.525207 183.055898 
L 226.595429 187.007503 
L 237.980329 186.803486 
L 237.910134 182.851881 
L 226.525207 183.055898 
" clip-path="url(#p6892c6406d)" style="fill: #a7a7d6"/>
    <path d="M 144.1837 155.287724 
L 144.421257 163.89597 
L 144.68409 163.888639 
L 144.696701 164.346429 
L 146.346027 164.300527 
L 146.33265 163.815737 
L 153.228762 163.62384 
L 153.242878 164.136012 
L 154.917454 164.089426 
L 154.903749 163.593749 
L 158.333873 163.498334 
L 158.347934 164.007716 
L 159.981367 163.962279 
L 159.968017 163.477736 
L 160.2262 163.470569 
L 159.988315 154.847962 
L 144.1837 155.287724 
" clip-path="url(#p6892c6406d)" style="fill: #034185"/>
    <path d="M 160.707167 155.972068 
L 161.028732 164.839672 
L 160.633717 164.854143 
L 160.663535 165.676497 
L 161.03538 165.662901 
L 161.067851 166.55813 
L 165.270855 166.40442 
L 165.275423 166.530364 
L 168.137918 166.42573 
L 168.147821 166.699201 
L 169.16783 166.661916 
L 169.156861 166.358792 
L 169.779557 166.336032 
L 169.775728 166.230468 
L 172.282572 166.138828 
L 171.894805 155.443484 
L 169.323402 155.537504 
L 169.319682 155.43432 
L 169.032885 155.444797 
L 169.018359 155.044098 
L 168.129602 155.076596 
L 168.145276 155.508179 
L 164.927131 155.625861 
L 164.934982 155.842979 
L 162.437138 155.934318 
L 162.423788 155.566664 
L 161.882612 155.586469 
L 161.895004 155.928655 
L 160.707167 155.972068 
" clip-path="url(#p6892c6406d)" style="fill: #034185"/>
    <path d="M 183.961354 338.856948 
L 184.029907 341.907357 
L 184.267846 341.90194 
L 184.269597 341.980619 
L 184.447436 341.97657 
L 184.733959 354.728332 
L 189.207154 354.626974 
L 189.22313 355.338149 
L 193.413933 355.243192 
L 193.398969 354.576801 
L 193.168389 354.545341 
L 192.930012 343.936231 
L 195.60222 343.875663 
L 195.59095 343.373334 
L 195.895446 343.36644 
L 195.879771 342.670288 
L 195.445555 342.680109 
L 195.439099 342.392696 
L 195.597296 342.389113 
L 195.590704 342.09694 
L 195.436938 342.100415 
L 195.429579 341.771858 
L 194.41277 341.794892 
L 194.341453 338.621734 
L 183.961354 338.856948 
" clip-path="url(#p6892c6406d)" style="fill: #a7a7d6"/>
    <path d="M 178.576039 357.022881 
L 178.625389 360.40712 
L 184.863242 360.315419 
L 184.824999 357.691762 
L 179.734386 357.766611 
L 179.723335 357.006001 
L 178.576039 357.022881 
" clip-path="url(#p6892c6406d)" style="fill: #a14059"/>
    <path d="M 208.489711 333.066615 
L 209.040107 353.651175 
L 210.074807 353.623298 
L 209.947713 348.870093 
L 213.07211 348.785806 
L 213.014582 346.634943 
L 217.679102 346.509156 
L 217.451531 337.996655 
L 209.65632 338.206866 
L 209.518147 333.038875 
L 208.489711 333.066615 
" clip-path="url(#p6892c6406d)" style="fill: #034185"/>
    <path d="M 41.452963 51.762353 
L 41.428179 50.326943 
L 41.824918 50.319995 
L 41.81124 49.528912 
L 41.369802 49.536626 
L 41.142942 36.401711 
L 41.600082 36.393751 
L 41.591793 35.914098 
L 41.120483 35.922304 
L 41.113507 34.346056 
L 23.756733 33.039301 
L 24.087353 52.138308 
L 32.283324 51.99552 
L 32.287071 52.21408 
L 33.351124 52.195533 
L 33.34661 51.935723 
L 34.410854 51.917177 
L 34.415614 52.193701 
L 35.485001 52.175072 
L 35.479667 51.866408 
L 41.452963 51.762353 
" clip-path="url(#p6892c6406d)" style="fill: #034185"/>
    <path d="M 83.527096 183.556475 
L 83.599561 185.908661 
L 88.19572 185.765893 
L 88.123255 183.413707 
L 83.527096 183.556475 
" clip-path="url(#p6892c6406d)" style="fill: #a7a7d6"/>
    <path d="M 71.708965 4.6484 
L 65.62392 19.737603 
L 90.821807 25.883586 
L 95.436705 14.408472 
L 88.259185 11.417115 
L 88.177501 11.672353 
L 78.927354 7.854094 
L 79.009038 7.639696 
L 71.708965 4.6484 
" clip-path="url(#p6892c6406d)" style="fill: #a7a7d6"/>
    <path d="M 145.764747 313.585607 
L 145.835024 316.243283 
L 146.533359 316.224653 
L 146.637857 320.17688 
L 146.919019 320.169356 
L 147.080143 326.261847 
L 150.406125 326.173157 
L 150.361863 326.505159 
L 153.528143 326.420736 
L 153.18037 313.268461 
L 152.22492 313.294259 
L 146.757565 313.441903 
L 146.760657 313.559017 
L 145.764747 313.585607 
" clip-path="url(#p6892c6406d)" style="fill: #a7a7d6"/>
    <path d="M 11.301133 51.834568 
L 11.276896 50.779244 
L 18.989246 50.600703 
L 18.984759 50.405805 
L 19.608058 50.391389 
L 19.325583 38.085188 
L 18.737026 38.09881 
L 18.706443 36.766723 
L 19.310674 36.752718 
L 19.234845 33.449666 
L 18.697716 33.462084 
L 17.853767 33.308628 
L 18.731829 29.204519 
L 4.417467 25.774225 
L 3.96826 27.86713 
L 1.803745 27.326014 
L 2.22245 45.562672 
L 8.626134 45.414413 
L 8.774866 51.893078 
L 11.301133 51.834568 
" clip-path="url(#p6892c6406d)" style="fill: #a7a7d6"/>
    <path d="M 70.34296 375.018684 
L 69.913395 359.095948 
L 63.208225 359.278392 
L 62.050835 365.263152 
L 62.180856 370.081111 
L 63.710529 375.209829 
L 64.369882 375.19191 
L 64.414034 376.827356 
L 64.989925 377.738819 
L 67.82728 377.661616 
L 67.794508 376.44739 
L 67.171784 376.464297 
L 67.166942 376.284861 
L 69.931805 376.209656 
L 69.89999 375.030721 
L 70.34296 375.018684 
" clip-path="url(#p6892c6406d)" style="fill: #034185"/>
    <path d="M 17.471636 356.172923 
L 33.864042 344.030804 
L 31.848123 341.285916 
L 33.909589 339.758988 
L 11.403525 309.114681 
L 7.30833 312.148041 
L 5.27452 309.378864 
L -9.08424 320.014736 
L 17.471636 356.172923 
" clip-path="url(#p6892c6406d)" style="fill: #a7a7d6"/>
    <path d="M 16.801259 357.21821 
L 28.33429 372.650968 
L 33.442136 368.801121 
L 33.217519 353.88795 
L 21.002922 354.051354 
L 16.801259 357.21821 
" clip-path="url(#p6892c6406d)" style="fill: #a7a7d6"/>
    <path d="M 37.943726 316.973735 
L 38.189572 327.190037 
L 42.864077 327.076588 
L 42.986931 332.182194 
L 47.694619 332.067952 
L 47.754856 334.571899 
L 61.75337 334.232236 
L 61.385491 318.938577 
L 53.376633 319.132892 
L 53.36394 318.605618 
L 50.751011 318.669003 
L 50.763485 319.18807 
L 47.336671 319.27118 
L 47.275941 316.747276 
L 37.943726 316.973735 
" clip-path="url(#p6892c6406d)" style="fill: #a7a7d6"/>
    <path d="M 61.836613 320.249457 
L 62.24971 335.191123 
L 63.756377 335.149075 
L 63.903195 340.459983 
L 66.202957 340.395885 
L 66.215322 340.843226 
L 66.684909 340.830122 
L 66.672024 340.364589 
L 67.959271 340.328724 
L 67.889487 337.804746 
L 67.168693 337.824854 
L 66.679027 320.114424 
L 61.836613 320.249457 
" clip-path="url(#p6892c6406d)" style="fill: #a7a7d6"/>
    <path d="M 268.546516 185.67986 
L 271.786217 185.677042 
L 271.78236 181.257306 
L 268.542659 181.260178 
L 268.546516 185.67986 
" clip-path="url(#p6892c6406d)" style="fill: #a14059"/>
    <path d="M 113.190601 171.414926 
L 108.83892 171.515211 
L 108.944704 176.14617 
L 108.810661 176.149234 
L 108.808938 176.073432 
L 107.779162 176.097149 
L 107.844597 178.960875 
L 108.308138 178.950206 
L 108.357214 181.098344 
L 109.04551 181.082505 
L 109.193367 187.555542 
L 113.557003 187.455011 
L 113.190601 171.414926 
" clip-path="url(#p6892c6406d)" style="fill: #a7a7d6"/>
    <path d="M 89.774442 324.650258 
L 89.892098 327.211484 
L 93.606147 327.039437 
L 93.488463 324.478212 
L 89.774442 324.650258 
" clip-path="url(#p6892c6406d)" style="fill: #034185"/>
    <path d="M 143.841043 155.108109 
L 165.893223 154.536496 
L 165.757512 149.25556 
L 154.9778 149.534965 
L 154.997086 150.285562 
L 143.72459 150.577769 
L 143.841043 155.108109 
" clip-path="url(#p6892c6406d)" style="fill: #a7a7d6"/>
    <path d="M -9.119556 148.588916 
L -9.037872 151.692655 
L -5.995323 151.570131 
L -6.056572 149.466933 
L 1.743781 149.24232 
L 1.723374 148.303028 
L -9.119556 148.588916 
" clip-path="url(#p6892c6406d)" style="fill: #808080"/>
    <path d="M 44.04751 185.985584 
L 44.091607 190.181888 
L 49.860749 190.120749 
L 49.816624 185.924418 
L 44.04751 185.985584 
" clip-path="url(#p6892c6406d)" style="fill: #808080"/>
    <path d="M 66.356477 194.29966 
L 70.400708 194.232365 
L 70.29982 188.116931 
L 66.255562 188.184226 
L 66.356477 194.29966 
" clip-path="url(#p6892c6406d)" style="fill: #808080"/>
    <path d="M 191.553339 204.370347 
L 193.515805 303.88571 
L 216.639998 303.425927 
L 214.741844 207.131271 
L 211.496097 207.195803 
L 213.35267 301.376208 
L 195.444324 301.732309 
L 193.588818 207.63653 
L 208.087884 207.348256 
L 208.022751 204.042873 
L 191.553339 204.370347 
" clip-path="url(#p6892c6406d)" style="fill: #a7a7d6"/>
    <path d="M 241.243283 338.034763 
L 241.897603 359.015244 
L 252.458523 358.683074 
L 252.283119 353.058648 
L 249.099332 353.158747 
L 248.620444 337.802722 
L 241.243283 338.034763 
" clip-path="url(#p6892c6406d)" style="fill: #034185"/>
    <path d="M 236.343914 359.266519 
L 236.574194 371.014567 
L 248.143663 370.785833 
L 247.913109 359.020223 
L 236.343914 359.266519 
" clip-path="url(#p6892c6406d)" style="fill: #a7a7d6"/>
    <path d="M 105.472616 286.481882 
L 103.635575 286.571092 
L 103.768687 289.335897 
L 105.605756 289.246661 
L 105.472616 286.481882 
" clip-path="url(#p6892c6406d)" style="fill: #808080"/>
    <path d="M 112.813148 272.33074 
L 109.040339 272.381705 
L 109.067996 274.44426 
L 112.840805 274.393268 
L 112.813148 272.33074 
" clip-path="url(#p6892c6406d)" style="fill: #808080"/>
    <path d="M 103.73069 263.070159 
L 101.21884 263.100688 
L 101.247974 265.520619 
L 103.759852 265.490116 
L 103.73069 263.070159 
" clip-path="url(#p6892c6406d)" style="fill: #808080"/>
    <path d="M 233.961867 224.67454 
L 229.619322 224.797887 
L 229.802222 231.291294 
L 234.144794 231.167919 
L 233.961867 224.67454 
" clip-path="url(#p6892c6406d)" style="fill: #034185"/>
    <path d="M 20.923563 195.803066 
L 27.821645 195.619128 
L 27.64583 188.969055 
L 20.922661 189.148343 
L 21.035393 193.410632 
L 20.860426 193.415283 
L 20.923563 195.803066 
" clip-path="url(#p6892c6406d)" style="fill: #034185"/>
    <path d="M 20.489265 157.516487 
L 26.988501 157.392103 
L 26.825681 148.811586 
L 20.133395 148.939636 
L 20.182171 151.509977 
L 20.427031 151.5053 
L 20.450475 152.741013 
L 20.210894 152.745582 
L 20.227554 153.622998 
L 20.442268 153.618895 
L 20.465684 154.854281 
L 20.245745 154.858521 
L 20.294465 157.424601 
L 20.487432 157.420935 
L 20.489265 157.516487 
" clip-path="url(#p6892c6406d)" style="fill: #034185"/>
    <path d="M 235.817345 390.11909 
L 235.980303 394.601141 
L 237.23631 394.555071 
L 237.073352 390.07302 
L 235.817345 390.11909 
" clip-path="url(#p6892c6406d)" style="fill: #a7a7d6"/>
    <path d="M 219.159426 268.357707 
L 219.118502 265.07329 
L 217.0665 265.099059 
L 217.076731 265.920047 
L 216.571308 265.926394 
L 216.602001 268.38985 
L 219.159426 268.357707 
" clip-path="url(#p6892c6406d)" style="fill: #034185"/>
    <path d="M 131.204814 92.708155 
L 131.316999 96.725313 
L 133.399749 96.666665 
L 133.287563 92.649535 
L 131.204814 92.708155 
" clip-path="url(#p6892c6406d)" style="fill: #808080"/>
    <path d="M 177.870674 339.346747 
L 178.085169 345.802306 
L 179.696444 345.748276 
L 179.658228 344.597094 
L 179.17376 344.613317 
L 178.997535 339.308994 
L 177.870674 339.346747 
" clip-path="url(#p6892c6406d)" style="fill: #a7a7d6"/>
   </g>
   <g id="matplotlib.axis_1"/>
   <g id="matplotlib.axis_2"/>
   <g id="LineCollection_1">
    <path d="M 297.395852 410.4 
L 297.395852 0 
L -0 0 
L -0 410.4 
L 297.395852 410.4 
" clip-path="url(#p6892c6406d)" style="fill: none"/>
   </g>
   <g id="patch_3">
    <path d="M 0 410.4 
L 0 0 
" style="fill: none; stroke: #000000; stroke-width: 0.8; stroke-linejoin: miter; stroke-linecap: square"/>
   </g>
   <g id="patch_4">
    <path d="M 297.395852 410.4 
L 297.395852 0 
" style="fill: none; stroke: #000000; stroke-width: 0.8; stroke-linejoin: miter; stroke-linecap: square"/>
   </g>
   <g id="patch_5">
    <path d="M -0 410.4 
L 297.395852 410.4 
" style="fill: none; stroke: #000000; stroke-width: 0.8; stroke-linejoin: miter; stroke-linecap: square"/>
   </g>
   <g id="patch_6">
    <path d="M -0 0 
L 297.395852 0 
" style="fill: none; stroke: #000000; stroke-width: 0.8; stroke-linejoin: miter; stroke-linecap: square"/>
   </g>
  </g>
 </g>
 <defs>
  <clipPath id="p6892c6406d">
   <rect x="0" y="0" width="297.395852" height="410.4"/>
  </clipPath>
 </defs>
</svg>
